<?xml version="1.0" encoding="UTF-8" standalone="no"?>
<!-- Created with Inkscape (http://www.inkscape.org/) -->

<svg
   width="142.19522mm"
   height="18.123283mm"
   viewBox="0 0 142.19522 18.123283"
   version="1.1"
   id="svg1"
   sodipodi:docname="fedi.svg"
   inkscape:version="1.3.2 (091e20ef0f, 2023-11-25)"
   xmlns:inkscape="http://www.inkscape.org/namespaces/inkscape"
   xmlns:sodipodi="http://sodipodi.sourceforge.net/DTD/sodipodi-0.dtd"
   xmlns:xlink="http://www.w3.org/1999/xlink"
   xmlns="http://www.w3.org/2000/svg"
   xmlns:svg="http://www.w3.org/2000/svg">
  <sodipodi:namedview
     id="namedview1"
     pagecolor="#ffffff"
     bordercolor="#000000"
     borderopacity="0.25"
     inkscape:showpageshadow="2"
     inkscape:pageopacity="0.0"
     inkscape:pagecheckerboard="0"
     inkscape:deskcolor="#d1d1d1"
     inkscape:document-units="mm"
     inkscape:zoom="2.7929179"
     inkscape:cx="268.71538"
     inkscape:cy="34.193629"
     inkscape:window-width="2560"
     inkscape:window-height="1371"
     inkscape:window-x="0"
     inkscape:window-y="0"
     inkscape:window-maximized="1"
     inkscape:current-layer="svg1" />
  <defs
     id="defs1" />
  <g
     id="layer1"
     transform="translate(-33.90239,-72.388732)">
    <a
       id="a10"
       xlink:href="https://rubber.social/@queer_workwear">
      <g
         id="g10">
        <rect
           style="opacity:0.6;fill:#05285b;fill-opacity:1;stroke:none;stroke-width:0.253;stroke-dasharray:none"
           id="rect8"
           width="142.19522"
           height="18.123283"
           x="33.90239"
           y="72.388733" />
        <g
           id="g7"
           transform="translate(-31.16668,3.0398882)">
          <g
             id="g4"
             transform="matrix(0.15577233,0,0,0.15577233,60.535435,65.47874)">
            <path
               fill="#2b90d9"
               d="m 129.09757,91.111917 c -0.89781,4.61892 -8.04121,9.673873 -16.24541,10.653533 -4.27814,0.51047 -8.49031,0.97967 -12.981872,0.77365 -7.345539,-0.33655 -13.141678,-1.75331 -13.141678,-1.75331 0,0.71508 0.0441,1.39594 0.132291,2.03271 0.95497,7.24923 7.188201,7.6835 13.092642,7.88599 5.959477,0.20391 11.265957,-1.46932 11.265957,-1.46932 l 0.24483,5.38762 c 0,0 -4.16842,2.23838 -11.594042,2.65007 -4.094692,0.22507 -9.178925,-0.10301 -15.100653,-1.6704 -12.843228,-3.39937 -15.05197,-17.089617 -15.389931,-30.980596 -0.103011,-4.124325 -0.03951,-8.013347 -0.03951,-11.265958 0,-14.204245 9.30663,-18.367728 9.30663,-18.367728 4.692651,-2.15512 12.744804,-3.061406 21.115868,-3.129845 h 0.205669 c 8.371059,0.06844 16.428509,0.974725 21.120809,3.129845 0,0 9.30627,4.163483 9.30627,18.367728 0,0 0.11677,10.47997 -1.29787,17.756011"
               id="path1"
               style="stroke-width:0.282222" />
            <path
               fill="#ffffff"
               d="m 119.41806,74.457843 v 17.198975 h -6.81391 V 74.963373 c 0,-3.518958 -1.4806,-5.305072 -4.44217,-5.305072 -3.27449,0 -4.91561,2.118783 -4.91561,6.308372 v 9.137298 h -6.773685 v -9.137298 c 0,-4.189589 -1.641475,-6.308372 -4.915958,-6.308372 -2.96157,0 -4.442178,1.786114 -4.442178,5.305072 V 91.656818 H 80.300646 V 74.457843 c 0,-3.515078 0.894997,-6.308373 2.692753,-8.374945 1.853847,-2.066572 4.281664,-3.125964 7.295444,-3.125964 3.486856,0 6.127398,1.340203 7.873295,4.020961 l 1.697214,2.845153 1.697568,-2.845153 c 1.74554,-2.680758 4.38608,-4.020961 7.87329,-4.020961 3.01343,0 5.44125,1.059392 7.29545,3.125964 1.7974,2.066572 2.6924,4.859867 2.6924,8.374945"
               id="path2-5"
               style="stroke-width:0.282222" />
          </g>
          <path
             style="-inkscape-font-specification:Anton;fill:#3485fd;stroke-width:0.4"
             d="m 88.198285,82.444076 q -0.731738,0 -1.372526,-0.214974 -0.636654,-0.21084 -1.12448,-0.669727 -0.487826,-0.463021 -0.764811,-1.198893 -0.272852,-0.735873 -0.272852,-1.781804 0,-1.298113 0.425814,-2.220021 0.425814,-0.926042 1.223698,-1.418002 0.802019,-0.491959 1.922364,-0.491959 1.066602,0 1.785939,0.44235 0.72347,0.44235 1.087272,1.273308 0.367937,0.826823 0.367937,1.980241 0,1.207162 -0.367937,1.856219 -0.367936,0.644922 -1.21543,0.644922 -0.607715,0 -0.897103,-0.248047 -0.289388,-0.252181 -0.434082,-0.636654 -0.07441,0.376204 -0.276986,0.615983 -0.198438,0.235645 -0.537435,0.235645 -0.409278,0 -0.686264,-0.28112 -0.276985,-0.285254 -0.417545,-0.744141 -0.136426,-0.463021 -0.136426,-0.996322 0,-0.595313 0.107487,-1.087273 0.111621,-0.496094 0.37207,-0.789616 0.26045,-0.293522 0.711068,-0.293522 0.297657,0 0.49196,0.16123 0.198438,0.157097 0.3514,0.417546 l 0.161231,-0.541569 h 0.93431 v 2.645834 q 0,0.322461 0.09922,0.463021 0.09922,0.136426 0.268717,0.136426 0.272852,0 0.363802,-0.392741 0.09095,-0.392741 0.09095,-1.14515 0,-0.847494 -0.202572,-1.455209 -0.202571,-0.611849 -0.669727,-0.938444 -0.463021,-0.33073 -1.260905,-0.33073 -1.219564,0 -1.852084,0.814421 -0.628386,0.814421 -0.628386,2.335776 0,1.434538 0.657325,2.158009 0.661458,0.719336 1.756999,0.719336 0.442351,0 1.099675,-0.08682 l 0.128158,0.934311 q -0.731739,0.128157 -1.289845,0.128157 z m -0.06614,-2.85254 q 0.190169,0 0.256315,-0.194303 0.07028,-0.198438 0.07028,-0.425814 v -1.620574 q -0.256315,0 -0.405144,0.103353 -0.144694,0.103353 -0.206705,0.363802 -0.05788,0.26045 -0.05788,0.735873 0,0.243913 0.02894,0.483692 0.02894,0.239778 0.103353,0.396875 0.07855,0.157096 0.21084,0.157096 z m 6.023407,3.232879 v -1.690854 q -0.124024,0.334864 -0.330729,0.529167 -0.202572,0.194304 -0.591179,0.194304 -0.429948,0 -0.682129,-0.157097 -0.252181,-0.157096 -0.376205,-0.434082 -0.124023,-0.276986 -0.165364,-0.649056 -0.03721,-0.372071 -0.03721,-0.797885 v -2.695443 q 0,-0.715202 0.252182,-1.157553 0.256315,-0.44235 0.86403,-0.44235 0.450619,0 0.690397,0.194303 0.243913,0.19017 0.376205,0.533301 v -0.661458 h 1.504818 v 7.234703 z m -0.355534,-2.124936 q 0.194303,0 0.272852,-0.202571 0.08268,-0.202572 0.08268,-0.566374 v -2.616896 q 0,-0.219108 -0.06615,-0.429948 -0.06201,-0.214974 -0.28112,-0.214974 -0.239779,0 -0.30179,0.202572 -0.06201,0.202571 -0.06201,0.44235 v 2.608627 q 0,0.777214 0.355534,0.777214 z m 3.62562,1.157553 q -0.496094,0 -0.760677,-0.206706 -0.26045,-0.206706 -0.355534,-0.574642 -0.09508,-0.372071 -0.09508,-0.868165 v -4.617807 h 1.488282 v 4.444175 q 0,0.37207 0.05788,0.520898 0.05788,0.144694 0.272852,0.144694 0.231511,0 0.289388,-0.206706 0.06201,-0.206705 0.06201,-0.533301 v -4.36976 h 1.475879 v 6.201174 h -1.480013 v -0.661459 q -0.14056,0.355534 -0.338998,0.54157 -0.194303,0.186035 -0.615983,0.186035 z m 4.766637,0 q -0.66146,0 -1.0542,-0.248047 -0.39274,-0.248047 -0.56224,-0.715202 -0.1695,-0.467155 -0.1695,-1.12448 v -2.492872 q 0,-0.86403 0.49609,-1.306381 0.4961,-0.446484 1.36426,-0.446484 1.78594,0 1.78594,1.752865 v 0.450619 q 0,0.818555 -0.0165,1.099675 h -2.14974 v 1.198893 q 0,0.165365 0.0207,0.326595 0.0207,0.157097 0.091,0.26045 0.0744,0.103353 0.23565,0.103353 0.23151,0 0.28939,-0.198438 0.0579,-0.202572 0.0579,-0.525033 v -0.595312 h 1.47174 v 0.3514 q 0,0.694531 -0.17363,1.16582 -0.1695,0.467155 -0.57878,0.706934 -0.40514,0.235645 -1.10794,0.235645 z m -0.31419,-3.76618 h 0.7028 V 77.25576 q 0,-0.334863 -0.0827,-0.479557 -0.0827,-0.148828 -0.24804,-0.148828 -0.17777,0 -0.27699,0.14056 -0.0951,0.14056 -0.0951,0.487825 z m 4.44831,3.76618 q -0.66146,0 -1.0542,-0.248047 -0.39275,-0.248047 -0.56224,-0.715202 -0.1695,-0.467155 -0.1695,-1.12448 v -2.492872 q 0,-0.86403 0.49609,-1.306381 0.4961,-0.446484 1.36426,-0.446484 1.78594,0 1.78594,1.752865 v 0.450619 q 0,0.818555 -0.0165,1.099675 h -2.14974 v 1.198893 q 0,0.165365 0.0207,0.326595 0.0207,0.157097 0.091,0.26045 0.0744,0.103353 0.23565,0.103353 0.23151,0 0.28938,-0.198438 0.0579,-0.202572 0.0579,-0.525033 v -0.595312 h 1.47175 v 0.3514 q 0,0.694531 -0.17364,1.16582 -0.16949,0.467155 -0.57877,0.706934 -0.40514,0.235645 -1.10794,0.235645 z m -0.3142,-3.76618 h 0.7028 V 77.25576 q 0,-0.334863 -0.0827,-0.479557 -0.0827,-0.148828 -0.24805,-0.148828 -0.17776,0 -0.27698,0.14056 -0.0951,0.14056 -0.0951,0.487825 z m 2.71198,3.700034 v -6.201174 h 1.50482 v 0.690397 q 0.10749,-0.359668 0.38034,-0.56224 0.27285,-0.202572 0.68626,-0.202572 v 1.236101 q -0.1819,0 -0.43408,0.04134 -0.25218,0.03721 -0.44235,0.107487 -0.19017,0.06615 -0.19017,0.148829 v 4.741831 z m 2.83601,1.49655 v -0.959115 h 2.69544 v 0.959115 z m 3.84059,-1.49655 -0.74827,-6.201174 h 1.26917 l 0.40928,3.332097 0.35966,-3.332097 h 1.41801 l 0.42581,3.332097 0.34313,-3.332097 h 1.27331 l -0.75654,6.201174 h -1.55857 l -0.44648,-3.518133 -0.38861,3.518133 z m 7.04867,0.06615 q -1.85209,0 -1.85209,-1.922364 V 77.44593 q 0,-0.876433 0.49196,-1.397332 0.49196,-0.525032 1.36013,-0.525032 0.8723,0 1.36426,0.525032 0.49196,0.520899 0.49196,1.397332 v 2.488738 q 0,1.922364 -1.85622,1.922364 z m 0,-1.141016 q 0.18603,0 0.26458,-0.132292 0.0827,-0.136426 0.0827,-0.343132 v -3.030307 q 0,-0.541569 -0.34726,-0.541569 -0.34727,0 -0.34727,0.541569 v 3.030307 q 0,0.206706 0.0785,0.343132 0.0827,0.132292 0.26872,0.132292 z m 2.40192,1.07487 v -6.201174 h 1.50482 v 0.690397 q 0.10749,-0.359668 0.38034,-0.56224 0.27285,-0.202572 0.68626,-0.202572 v 1.236101 q -0.1819,0 -0.43408,0.04134 -0.25218,0.03721 -0.44235,0.107487 -0.19017,0.06615 -0.19017,0.148829 v 4.741831 z m 2.93522,0 v -7.276045 h 1.46348 v 3.212209 l 0.71107,-2.137338 h 1.53375 l -0.93017,2.695443 1.18236,3.505731 h -1.5751 l -0.92191,-2.92282 v 2.92282 z m 4.80385,0 -0.74828,-6.201174 h 1.26918 l 0.40927,3.332097 0.35967,-3.332097 h 1.418 l 0.42582,3.332097 0.34313,-3.332097 h 1.27331 l -0.75655,6.201174 h -1.55856 l -0.44648,-3.518133 -0.38861,3.518133 z m 6.98252,0.06615 q -0.66146,0 -1.0542,-0.248047 -0.39274,-0.248047 -0.56224,-0.715202 -0.1695,-0.467155 -0.1695,-1.12448 v -2.492872 q 0,-0.86403 0.49609,-1.306381 0.4961,-0.446484 1.36426,-0.446484 1.78594,0 1.78594,1.752865 v 0.450619 q 0,0.818555 -0.0165,1.099675 h -2.14974 v 1.198893 q 0,0.165365 0.0207,0.326595 0.0207,0.157097 0.091,0.26045 0.0744,0.103353 0.23564,0.103353 0.23151,0 0.28939,-0.198438 0.0579,-0.202572 0.0579,-0.525033 v -0.595312 h 1.47174 v 0.3514 q 0,0.694531 -0.17363,1.16582 -0.1695,0.467155 -0.57878,0.706934 -0.40514,0.235645 -1.10794,0.235645 z m -0.31419,-3.76618 h 0.7028 V 77.25576 q 0,-0.334863 -0.0827,-0.479557 -0.0827,-0.148828 -0.24804,-0.148828 -0.17777,0 -0.27699,0.14056 -0.0951,0.14056 -0.0951,0.487825 z m 3.84059,3.76618 q -0.51676,0 -0.78962,-0.239779 -0.26871,-0.239779 -0.36793,-0.657324 -0.0992,-0.417546 -0.0992,-0.946713 0,-0.566374 0.11162,-0.926042 0.11162,-0.363802 0.38034,-0.595313 0.27285,-0.23151 0.74827,-0.392741 l 0.91778,-0.314193 v -0.636654 q 0,-0.500228 -0.3266,-0.500228 -0.29765,0 -0.29765,0.405144 v 0.37207 h -1.43868 q -0.004,-0.03307 -0.004,-0.08268 0,-0.05374 0,-0.11989 0,-0.926042 0.43408,-1.310514 0.43822,-0.388607 1.38493,-0.388607 0.49609,0 0.88884,0.177767 0.39274,0.173633 0.62011,0.516764 0.23151,0.343132 0.23151,0.847494 v 4.725295 h -1.47174 v -0.735873 q -0.10749,0.388607 -0.35554,0.595313 -0.24804,0.206706 -0.56637,0.206706 z m 0.58291,-1.149285 q 0.1819,0 0.24805,-0.152962 0.0661,-0.152962 0.0661,-0.330729 v -1.728061 q -0.30592,0.124024 -0.47542,0.314193 -0.1695,0.186035 -0.1695,0.549838 v 0.797884 q 0,0.549837 0.33073,0.549837 z m 2.38125,1.083139 v -6.201174 h 1.50482 v 0.690397 q 0.10749,-0.359668 0.38034,-0.56224 0.27285,-0.202572 0.68626,-0.202572 v 1.236101 q -0.1819,0 -0.43408,0.04134 -0.25218,0.03721 -0.44235,0.107487 -0.19017,0.06615 -0.19017,0.148829 v 4.741831 z m 6.43682,0.65319 q -0.73174,0 -1.37252,-0.214974 -0.63666,-0.21084 -1.12448,-0.669727 -0.48783,-0.463021 -0.76481,-1.198893 -0.27286,-0.735873 -0.27286,-1.781804 0,-1.298113 0.42582,-2.220021 0.42581,-0.926042 1.2237,-1.418002 0.80201,-0.491959 1.92236,-0.491959 1.0666,0 1.78594,0.44235 0.72347,0.44235 1.08727,1.273308 0.36794,0.826823 0.36794,1.980241 0,1.207162 -0.36794,1.856219 -0.36794,0.644922 -1.21543,0.644922 -0.60771,0 -0.8971,-0.248047 -0.28939,-0.252181 -0.43408,-0.636654 -0.0744,0.376204 -0.27699,0.615983 -0.19844,0.235645 -0.53744,0.235645 -0.40927,0 -0.68626,-0.28112 -0.27698,-0.285254 -0.41754,-0.744141 -0.13643,-0.463021 -0.13643,-0.996322 0,-0.595313 0.10749,-1.087273 0.11162,-0.496094 0.37207,-0.789616 0.26045,-0.293522 0.71107,-0.293522 0.29765,0 0.49195,0.16123 0.19844,0.157097 0.3514,0.417546 l 0.16124,-0.541569 h 0.93431 v 2.645834 q 0,0.322461 0.0992,0.463021 0.0992,0.136426 0.26872,0.136426 0.27285,0 0.3638,-0.392741 0.0909,-0.392741 0.0909,-1.14515 0,-0.847494 -0.20257,-1.455209 -0.20257,-0.611849 -0.66972,-0.938444 -0.46302,-0.33073 -1.26091,-0.33073 -1.21956,0 -1.85208,0.814421 -0.62839,0.814421 -0.62839,2.335776 0,1.434538 0.65733,2.158009 0.66145,0.719336 1.75699,0.719336 0.44236,0 1.09968,-0.08682 l 0.12816,0.934311 q -0.73174,0.128157 -1.28985,0.128157 z m -0.0661,-2.85254 q 0.19017,0 0.25631,-0.194303 0.0703,-0.198438 0.0703,-0.425814 v -1.620574 q -0.25631,0 -0.40514,0.103353 -0.14469,0.103353 -0.20671,0.363802 -0.0579,0.26045 -0.0579,0.735873 0,0.243913 0.0289,0.483692 0.0289,0.239778 0.10336,0.396875 0.0785,0.157096 0.21084,0.157096 z m 3.88193,2.19935 v -6.201174 h 1.50482 v 0.690397 q 0.10748,-0.359668 0.38034,-0.56224 0.27285,-0.202572 0.68626,-0.202572 v 1.236101 q -0.1819,0 -0.43408,0.04134 -0.25218,0.03721 -0.44235,0.107487 -0.19017,0.06615 -0.19017,0.148829 v 4.741831 z m 4.12998,0.06615 q -0.4961,0 -0.76068,-0.206706 -0.26045,-0.206706 -0.35553,-0.574642 -0.0951,-0.372071 -0.0951,-0.868165 v -4.617807 h 1.48828 v 4.444175 q 0,0.37207 0.0579,0.520898 0.0579,0.144694 0.27285,0.144694 0.23151,0 0.28939,-0.206706 0.062,-0.206705 0.062,-0.533301 v -4.36976 h 1.47588 v 6.201174 h -1.48001 v -0.661459 q -0.14056,0.355534 -0.339,0.54157 -0.1943,0.186035 -0.61598,0.186035 z m 5.50664,0 q -0.3638,0 -0.59118,-0.177767 -0.22737,-0.181901 -0.3638,-0.549838 v 0.661459 h -1.50482 v -7.276045 h 1.50482 v 1.736329 q 0.13643,-0.343131 0.3762,-0.533301 0.24392,-0.194303 0.69454,-0.194303 0.60771,0 0.85576,0.44235 0.25218,0.442351 0.25218,1.157553 v 3.050977 q 0,0.475424 -0.13229,0.859897 -0.12816,0.380338 -0.40101,0.603581 -0.26872,0.219108 -0.6904,0.219108 z m -0.61185,-1.153419 q 0.23565,0 0.28526,-0.23151 0.0496,-0.231511 0.0496,-0.570508 v -2.422592 q 0,-0.343132 -0.0496,-0.570508 -0.0496,-0.231511 -0.28112,-0.231511 -0.23978,0 -0.29353,0.235645 -0.0537,0.23151 -0.0537,0.566374 v 2.422592 q 0,0.334863 0.0537,0.570508 0.0538,0.23151 0.28939,0.23151 z m 4.85759,1.153419 q -0.3638,0 -0.59117,-0.177767 -0.22738,-0.181901 -0.36381,-0.549838 v 0.661459 h -1.50482 v -7.276045 h 1.50482 v 1.736329 q 0.13643,-0.343131 0.37621,-0.533301 0.24391,-0.194303 0.69453,-0.194303 0.60771,0 0.85576,0.44235 0.25218,0.442351 0.25218,1.157553 v 3.050977 q 0,0.475424 -0.13229,0.859897 -0.12816,0.380338 -0.40101,0.603581 -0.26872,0.219108 -0.6904,0.219108 z m -0.61185,-1.153419 q 0.23565,0 0.28526,-0.23151 0.0496,-0.231511 0.0496,-0.570508 v -2.422592 q 0,-0.343132 -0.0496,-0.570508 -0.0496,-0.231511 -0.28112,-0.231511 -0.23978,0 -0.29352,0.235645 -0.0537,0.23151 -0.0537,0.566374 v 2.422592 q 0,0.334863 0.0537,0.570508 0.0537,0.23151 0.28938,0.23151 z m 4.11758,1.153419 q -0.66146,0 -1.0542,-0.248047 -0.39274,-0.248047 -0.56224,-0.715202 -0.1695,-0.467155 -0.1695,-1.12448 v -2.492872 q 0,-0.86403 0.4961,-1.306381 0.49609,-0.446484 1.36426,-0.446484 1.78593,0 1.78593,1.752865 v 0.450619 q 0,0.818555 -0.0165,1.099675 h -2.14974 v 1.198893 q 0,0.165365 0.0207,0.326595 0.0207,0.157097 0.0909,0.26045 0.0744,0.103353 0.23564,0.103353 0.23151,0 0.28939,-0.198438 0.0579,-0.202572 0.0579,-0.525033 v -0.595312 h 1.47174 v 0.3514 q 0,0.694531 -0.17363,1.16582 -0.1695,0.467155 -0.57877,0.706934 -0.40515,0.235645 -1.10795,0.235645 z m -0.31419,-3.76618 h 0.7028 V 77.25576 q 0,-0.334863 -0.0827,-0.479557 -0.0827,-0.148828 -0.24805,-0.148828 -0.17777,0 -0.27699,0.14056 -0.0951,0.14056 -0.0951,0.487825 z m 2.71198,3.700034 v -6.201174 h 1.50482 v 0.690397 q 0.10749,-0.359668 0.38034,-0.56224 0.27285,-0.202572 0.68626,-0.202572 v 1.236101 q -0.1819,0 -0.43408,0.04134 -0.25218,0.03721 -0.44235,0.107487 -0.19017,0.06615 -0.19017,0.148829 v 4.741831 z m 2.86494,-0.0041 v -1.231967 h 1.48001 v 1.231967 z m 3.70417,0.07028 q -1.83555,0 -1.83555,-1.860353 V 79.50472 h 1.48828 v 0.727604 q 0,0.21084 0.0827,0.330729 0.0827,0.11989 0.26458,0.11989 0.32246,0 0.32246,-0.483692 0,-0.405143 -0.1695,-0.603581 -0.1695,-0.202571 -0.41341,-0.388607 l -0.78962,-0.607715 q -0.37207,-0.289388 -0.56637,-0.611849 -0.1943,-0.322461 -0.1943,-0.897103 0,-0.533301 0.25218,-0.880567 0.25631,-0.347266 0.67386,-0.516765 0.42168,-0.169498 0.9095,-0.169498 1.80248,0 1.80248,1.79834 v 0.115756 h -1.52962 v -0.235645 q 0,-0.186035 -0.0661,-0.359668 -0.062,-0.173633 -0.24805,-0.173633 -0.31419,0 -0.31419,0.330729 0,0.334864 0.26458,0.525033 l 0.91778,0.669727 q 0.42995,0.310059 0.71933,0.735872 0.29353,0.425814 0.29353,1.132748 0,0.876433 -0.50023,1.33532 -0.4961,0.458887 -1.36426,0.458887 z m 4.12172,0 q -1.85209,0 -1.85209,-1.922364 V 77.44593 q 0,-0.876433 0.49196,-1.397332 0.49196,-0.525032 1.36013,-0.525032 0.8723,0 1.36426,0.525032 0.49195,0.520899 0.49195,1.397332 v 2.488738 q 0,1.922364 -1.85621,1.922364 z m 0,-1.141016 q 0.18603,0 0.26458,-0.132292 0.0827,-0.136426 0.0827,-0.343132 v -3.030307 q 0,-0.541569 -0.34726,-0.541569 -0.34727,0 -0.34727,0.541569 v 3.030307 q 0,0.206706 0.0786,0.343132 0.0827,0.132292 0.26872,0.132292 z m 4.2664,1.141016 q -1.0418,0 -1.48001,-0.533301 -0.43409,-0.533301 -0.43409,-1.56683 v -1.909962 q 0,-0.777214 0.16537,-1.293978 0.16536,-0.516765 0.57877,-0.77308 0.41342,-0.256315 1.14929,-0.256315 0.51263,0 0.91777,0.181901 0.40928,0.181901 0.64493,0.533301 0.23564,0.3514 0.23564,0.859896 v 0.946713 h -1.50895 v -0.868165 q 0,-0.214974 -0.062,-0.359668 -0.062,-0.148828 -0.26872,-0.148828 -0.3638,0 -0.3638,0.516764 v 3.005503 q 0,0.190169 0.0827,0.3514 0.0827,0.157096 0.27285,0.157096 0.1943,0 0.26872,-0.152962 0.0786,-0.157096 0.0786,-0.363802 v -1.041798 h 1.50068 v 1.083139 q 0,0.51263 -0.23151,0.880567 -0.22738,0.363802 -0.62839,0.558105 -0.40101,0.194304 -0.91777,0.194304 z m 2.28617,-6.647659 v -1.231967 h 1.48001 v 1.231967 z m 0,6.581513 v -6.201174 h 1.48001 v 6.201174 z m 3.19567,0.06615 q -0.51676,0 -0.78962,-0.239779 -0.26871,-0.239779 -0.36793,-0.657324 -0.0992,-0.417546 -0.0992,-0.946713 0,-0.566374 0.11162,-0.926042 0.11162,-0.363802 0.38034,-0.595313 0.27285,-0.23151 0.74827,-0.392741 l 0.91778,-0.314193 v -0.636654 q 0,-0.500228 -0.3266,-0.500228 -0.29765,0 -0.29765,0.405144 v 0.37207 h -1.43868 q -0.004,-0.03307 -0.004,-0.08268 0,-0.05374 0,-0.11989 0,-0.926042 0.43408,-1.310514 0.43822,-0.388607 1.38493,-0.388607 0.49609,0 0.88883,0.177767 0.39275,0.173633 0.62012,0.516764 0.23151,0.343132 0.23151,0.847494 v 4.725295 h -1.47174 v -0.735873 q -0.10749,0.388607 -0.35554,0.595313 -0.24804,0.206706 -0.56637,0.206706 z m 0.58291,-1.149285 q 0.1819,0 0.24805,-0.152962 0.0661,-0.152962 0.0661,-0.330729 v -1.728061 q -0.30592,0.124024 -0.47542,0.314193 -0.1695,0.186035 -0.1695,0.549838 v 0.797884 q 0,0.549837 0.33073,0.549837 z m 2.38125,1.083139 v -7.276045 h 1.50482 v 7.276045 z"
             id="text5"
             aria-label="@queer_workwear@rubber.social" />
        </g>
      </g>
    </a>
  </g>
</svg>
