<?xml version="1.0" encoding="UTF-8" standalone="no"?>
<!-- Created with Inkscape (http://www.inkscape.org/) -->

<svg
   width="41.272488mm"
   height="12.070067mm"
   viewBox="0 0 41.272487 12.070067"
   version="1.1"
   id="svg1"
   sodipodi:docname="gwtf.svg"
   inkscape:version="1.3.2 (091e20ef0f, 2023-11-25)"
   xmlns:inkscape="http://www.inkscape.org/namespaces/inkscape"
   xmlns:sodipodi="http://sodipodi.sourceforge.net/DTD/sodipodi-0.dtd"
   xmlns="http://www.w3.org/2000/svg"
   xmlns:svg="http://www.w3.org/2000/svg">
  <sodipodi:namedview
     id="namedview1"
     pagecolor="#ffffff"
     bordercolor="#000000"
     borderopacity="0.25"
     inkscape:showpageshadow="2"
     inkscape:pageopacity="0.0"
     inkscape:pagecheckerboard="0"
     inkscape:deskcolor="#d1d1d1"
     inkscape:document-units="mm"
     inkscape:zoom="9.6223806"
     inkscape:cx="77.995252"
     inkscape:cy="22.811403"
     inkscape:window-width="2560"
     inkscape:window-height="1371"
     inkscape:window-x="0"
     inkscape:window-y="0"
     inkscape:window-maximized="1"
     inkscape:current-layer="svg1" />
  <defs
     id="defs1">
    <marker
       style="overflow:visible"
       id="Sketch"
       refX="0"
       refY="0"
       orient="auto-start-reverse"
       markerWidth="1"
       markerHeight="1"
       viewBox="0 0 1 1"
       preserveAspectRatio="xMidYMid">
      <path
         style="fill:none;stroke:context-stroke;stroke-width:0.4;stroke-linecap:round"
         d="m -4.5421538,-3.2452189 3.83900644,2.60235235 0.56348102,0.59255887 L -2.4921466,1.1808717 -4.4106004,2.139946 -4.5795251,2.8245356 -4.703996,3.0734773 -4.3128019,2.6822832 -3.9749524,2.3088707 0.66603196,-0.12720162 0.02589622,-0.32279868 -1.7613224,-0.60366199 -3.580874,-2.0472634 -4.3186004,-2.392437 l -1.2937699,-0.2549423 2.1825172,0.042166 0.6996091,1.0554873 1.4406512,0.1145833 1.20879971,0.91674665 1.53333299,0.47138389 -1.85995289,1.23785256 -2.03832621,0.9224332 -1.5469949,0.9779853"
         id="path9" />
    </marker>
  </defs>
  <g
     id="layer1"
     transform="translate(-84.363762,-30.936122)">
    <g
       id="g5"
       transform="matrix(0.63163919,0,0,0.63163919,45.313013,4.4573551)">
      <path
         style="-inkscape-font-specification:'Shadows Into Light, @wght=700';fill:#ffffff;stroke-width:0.4"
         d="m 76.426732,48.332273 q -0.253076,0.218169 -0.532331,0.479971 -0.270529,0.253075 -0.584692,0.471244 -0.305436,0.218168 -0.637052,0.366523 -0.331616,0.139628 -0.698139,0.139628 -0.191988,0 -0.418883,-0.04363 -0.226896,-0.05236 -0.427611,-0.165808 -0.191988,-0.113448 -0.340342,-0.279256 -0.139628,-0.174534 -0.148355,-0.410156 -0.03491,-0.331616 0.06981,-0.811587 0.113448,-0.488697 0.331616,-1.021028 0.218169,-0.541058 0.514878,-1.064662 0.305435,-0.532332 0.663232,-0.959942 0.357796,-0.436337 0.750499,-0.698139 0.40143,-0.261802 0.811587,-0.261802 0.06109,0 0.130901,0.01745 0.07854,0.0087 0.139628,0.03491 0.06981,0.02618 0.113447,0.08727 0.04363,0.05236 0.04363,0.148354 0,0.04363 -0.200715,0.113448 -0.191988,0.06981 -0.445064,0.157081 -0.253075,0.07854 -0.488697,0.174535 -0.235622,0.08727 -0.314162,0.174535 -0.314163,0.40143 -0.602145,0.820313 -0.279256,0.418884 -0.506151,0.863947 -0.218169,0.445064 -0.37525,0.916308 -0.148355,0.471244 -0.200715,0.968668 0,0.244349 0.09599,0.383976 0.09599,0.130901 0.244349,0.200715 0.157081,0.06109 0.357796,0.07854 0.200715,0.0087 0.40143,0.0087 0.34907,-0.03491 0.698139,-0.235622 0.34907,-0.209442 0.654506,-0.514878 0.314162,-0.305436 0.567238,-0.689412 0.253075,-0.392703 0.42761,-0.794133 h -1.361371 q 0,-0.104721 0.122174,-0.191989 0.130901,-0.08727 0.322889,-0.157081 0.200715,-0.07854 0.445064,-0.139628 0.244348,-0.06109 0.47997,-0.104721 0.235622,-0.04363 0.436337,-0.06109 0.200715,-0.01745 0.314163,-0.01745 h 0.09599 q 0.06109,0 0.113448,0.01745 0.05236,0.01745 0.06981,0.06981 0.02618,0.04363 -0.01745,0.139628 -0.0087,0.01745 -0.06109,0.05236 -0.04363,0.03491 -0.104721,0.06981 -0.05236,0.03491 -0.104721,0.06981 -0.05236,0.02618 -0.06981,0.03491 -0.183261,0.366523 -0.261802,0.863947 -0.07854,0.497424 -0.08727,1.029755 -0.0087,0.532332 0.03491,1.064663 0.04363,0.523604 0.104721,0.942487 l -0.340343,0.226896 q -0.104721,-0.104721 -0.174535,-0.29671 -0.06109,-0.191988 -0.08727,-0.42761 -0.02618,-0.235622 -0.02618,-0.497424 0,-0.261802 0.0087,-0.506151 0.01745,-0.253075 0.02618,-0.471244 0.01745,-0.218168 0.02618,-0.366523 z m 1.527179,0.366523 q -0.06109,-0.40143 -0.06109,-0.776679 0,-0.383977 0.04363,-0.77668 0.05236,-0.392703 0.139628,-0.811587 0.09599,-0.42761 0.218169,-0.916307 0,-0.09599 0.05236,-0.174535 0.05236,-0.08727 0.139628,-0.139628 0.08727,-0.06109 0.183261,-0.09599 0.09599,-0.03491 0.183262,-0.03491 0.191988,0 0.349069,0.122174 0.157082,0.122175 0.279256,0.29671 0.130901,0.174534 0.218169,0.375249 0.09599,0.191989 0.157081,0.331616 0.06981,0.305436 0.09599,0.698139 0.03491,0.383977 0.0087,0.785407 -0.02618,0.40143 -0.122175,0.794133 -0.09599,0.383977 -0.270529,0.706866 -0.174534,0.322889 -0.45379,0.541058 -0.270529,0.218168 -0.645779,0.270529 -0.200715,0 -0.305435,-0.130901 -0.104721,-0.139628 -0.157082,-0.331617 -0.04363,-0.200715 -0.05236,-0.40143 0,-0.200714 0,-0.331616 z m 0.445063,-0.02618 q 0,0.08727 0,0.165808 0.0087,0.07854 0.01745,0.157082 0.01745,0.06981 0.03491,0.157081 0.02618,0.07854 0.06109,0.183261 h 0.05236 q 0.209441,0 0.357796,-0.139627 0.148354,-0.139628 0.253075,-0.357797 0.104721,-0.226895 0.174535,-0.497424 0.06981,-0.279255 0.104721,-0.541058 0.04363,-0.270529 0.05236,-0.497424 0.01745,-0.235622 0.01745,-0.375249 v -0.174535 q 0,-0.113448 -0.0087,-0.253076 -0.0087,-0.148354 -0.03491,-0.296709 -0.01745,-0.157081 -0.06109,-0.279255 -0.04363,-0.130901 -0.113448,-0.209442 -0.06981,-0.07854 -0.183261,-0.07854 -0.191988,-0.06109 -0.331616,0.02618 -0.130901,0.08727 -0.218169,0.29671 -0.07854,0.200715 -0.122174,0.497424 -0.04363,0.296709 -0.05236,0.654505 -0.0087,0.357796 -0.0087,0.759226 0.0087,0.40143 0.0087,0.80286 z m 7.452635,0.994848 q -0.04363,-0.130901 -0.148354,-0.410156 -0.104721,-0.279256 -0.235622,-0.628325 -0.130901,-0.34907 -0.279256,-0.741773 -0.148355,-0.392703 -0.279256,-0.741773 -0.130901,-0.34907 -0.235622,-0.628325 -0.10472,-0.279256 -0.157081,-0.418884 -0.05236,-0.07854 -0.09599,-0.174534 -0.03491,-0.104721 -0.03491,-0.200715 0,-0.104721 0.04363,-0.183262 0.04363,-0.07854 0.139628,-0.113447 0.09599,0 0.165808,0.06981 0.07854,0.06109 0.113447,0.148355 l 1.003575,2.574388 q 0.0087,-0.122175 0.04363,-0.436337 0.03491,-0.322889 0.06981,-0.680686 0.03491,-0.357796 0.06109,-0.671959 0.03491,-0.322889 0.05236,-0.445063 0.0087,-0.08727 0.01745,-0.200715 0.0087,-0.113448 0.03491,-0.218169 0.03491,-0.104721 0.09599,-0.183261 0.06981,-0.07854 0.191988,-0.07854 0.08727,0 0.122174,0.01745 0.04363,0.01745 0.096,0.104721 l 1.675533,2.86237 v -2.949638 q 0.253076,0 0.34907,0.130901 0.104721,0.122175 0.122174,0.305436 0.02618,0.183262 0,0.392703 -0.02618,0.209442 -0.01745,0.37525 0,0.06109 0.0087,0.261802 0.0087,0.200715 0.01745,0.462517 0.01745,0.261802 0.02618,0.567238 0.0087,0.296709 0.01745,0.558512 0.01745,0.261802 0.02618,0.462517 0.0087,0.200715 0.0087,0.261802 0.06109,0.174535 -0.0087,0.235622 -0.06109,0.05236 -0.174535,0.03491 -0.113447,-0.01745 -0.226895,-0.09599 -0.113448,-0.07854 -0.148355,-0.174535 l -1.780254,-3.019452 q -0.06109,1.317738 -0.122175,2.199138 -0.06109,0.881401 -0.113447,1.483546 -0.02618,0.09599 -0.08727,0.104721 -0.06109,0.0087 -0.130901,-0.01745 -0.06109,-0.03491 -0.122174,-0.09599 -0.06109,-0.06109 -0.104721,-0.104721 z m 3.71759,0.05236 q 0,-0.567238 -0.02618,-1.195563 -0.01745,-0.628326 -0.04363,-1.265377 -0.01745,-0.645779 -0.0087,-1.265377 0.0087,-0.619599 0.07854,-1.160657 0.01745,-0.0087 0.07854,-0.0087 0.06981,-0.0087 0.09599,-0.0087 0.122175,0 0.191989,0.04363 0.07854,0.03491 0.07854,0.165808 0,0.514877 -0.0087,1.125749 0,0.602145 -0.0087,1.23047 0,0.619598 0,1.23047 0,0.610872 0.01745,1.108296 0.0087,0.148354 -0.06109,0.191988 -0.06109,0.05236 -0.157081,0.05236 -0.104721,0 -0.174535,-0.05236 -0.06981,-0.04363 -0.05236,-0.191988 z M 89.37721,43.47148 q 0,-0.104721 0.06981,-0.139628 0.06981,-0.03491 0.157082,-0.03491 0.174534,0 0.218168,0.113448 0.04363,0.113448 0.04363,0.261802 -0.05236,0.09599 -0.130901,0.139628 -0.07854,0.03491 -0.165808,0.01745 -0.07854,-0.02618 -0.139628,-0.113447 -0.05236,-0.08727 -0.05236,-0.244349 z m 1.474821,2.696562 q -0.08727,0.04363 -0.165808,0.09599 -0.06981,0.04363 -0.139628,0.08727 -0.06981,0.03491 -0.139628,0.05236 -0.06981,0.01745 -0.148354,0 -0.05236,0 -0.08727,-0.06109 -0.03491,-0.06981 -0.05236,-0.148354 -0.02618,-0.08727 -0.03491,-0.165809 -0.0087,-0.08727 0,-0.130901 l 0.837767,-0.47997 0.05236,-2.234045 q 0.01745,-0.113448 0.139628,-0.08727 0.122174,0.01745 0.253075,0.05236 0.01745,0 0.05236,0.01745 0.04363,0.0087 0.06109,0.01745 -0.01745,0.235622 -0.04363,0.514877 -0.01745,0.270529 -0.03491,0.549785 -0.01745,0.270529 -0.02618,0.532331 0,0.261802 0.02618,0.471244 l 1.309011,-0.366523 q 0.03491,-0.0087 0.05236,0.05236 0.02618,0.05236 0.04363,0.130901 0.02618,0.07854 0.03491,0.157082 0.0087,0.07854 0.0087,0.07854 l -1.483546,0.628325 q 0,0.07854 0.0087,0.37525 0.01745,0.296709 0.03491,0.706866 0.01745,0.40143 0.03491,0.872674 0.01745,0.462517 0.03491,0.863947 0.01745,0.40143 0.02618,0.706866 0.0087,0.296709 0.0087,0.375249 -0.01745,0.261803 -0.157081,0.261803 -0.130901,0 -0.287983,-0.130902 z m 5.29713,-0.08727 q -0.32289,-0.122174 -0.619599,0.09599 -0.296709,0.218168 -0.567238,0.619598 -0.270528,0.392704 -0.514877,0.898855 -0.244349,0.50615 -0.453791,0.959941 -0.209441,0.45379 -0.383976,0.776679 -0.165808,0.32289 -0.305436,0.357797 -0.104721,0 -0.165808,-0.03491 -0.05236,-0.04363 -0.05236,-0.200715 V 43.41912 q 0,-0.07854 0.06109,-0.09599 0.06981,-0.01745 0.148354,-0.0087 0.07854,0.0087 0.148355,0.04363 0.06981,0.02618 0.08727,0.06109 l 0.113448,4.913153 q 0.09599,-0.157081 0.174535,-0.436337 0.08727,-0.287982 0.200715,-0.610871 0.113447,-0.331616 0.261802,-0.654506 0.157081,-0.331616 0.383976,-0.593418 0.226895,-0.261802 0.549785,-0.40143 0.331616,-0.148354 0.77668,-0.104721 0.296709,0 0.47997,0.191989 0.183262,0.183261 0.191988,0.488697 l 0.08727,3.481969 q 0,0.03491 -0.01745,0.10472 -0.0087,0.06109 -0.06981,0.104721 -0.05236,0.05236 -0.157081,0.06109 -0.09599,0.01745 -0.253075,-0.04363 z m 5.297129,0.08727 q -0.0873,0.04363 -0.16581,0.09599 -0.0698,0.04363 -0.13963,0.08727 -0.0698,0.03491 -0.13962,0.05236 -0.0698,0.01745 -0.14836,0 -0.0524,0 -0.0873,-0.06109 -0.0349,-0.06981 -0.0524,-0.148354 -0.0262,-0.08727 -0.0349,-0.165809 -0.009,-0.08727 0,-0.130901 l 0.83776,-0.47997 0.0524,-2.234045 q 0.0175,-0.113448 0.13963,-0.08727 0.12218,0.01745 0.25308,0.05236 0.0175,0 0.0524,0.01745 0.0436,0.0087 0.0611,0.01745 -0.0175,0.235622 -0.0436,0.514877 -0.0174,0.270529 -0.0349,0.549785 -0.0174,0.270529 -0.0262,0.532331 0,0.261802 0.0262,0.471244 l 1.30902,-0.366523 q 0.0349,-0.0087 0.0524,0.05236 0.0262,0.05236 0.0436,0.130901 0.0262,0.07854 0.0349,0.157082 0.009,0.07854 0.009,0.07854 l -1.48354,0.628325 q 0,0.07854 0.009,0.37525 0.0175,0.296709 0.0349,0.706866 0.0174,0.40143 0.0349,0.872674 0.0174,0.462517 0.0349,0.863947 0.0175,0.40143 0.0262,0.706866 0.009,0.296709 0.009,0.375249 -0.0174,0.261803 -0.15708,0.261803 -0.1309,0 -0.28798,-0.130902 z m 5.29713,-0.08727 q -0.32289,-0.122174 -0.6196,0.09599 -0.29671,0.218168 -0.56724,0.619598 -0.27053,0.392704 -0.51487,0.898855 -0.24435,0.50615 -0.45379,0.959941 -0.20945,0.45379 -0.38398,0.776679 -0.16581,0.32289 -0.30544,0.357797 -0.10472,0 -0.1658,-0.03491 -0.0524,-0.04363 -0.0524,-0.200715 V 43.41912 q 0,-0.07854 0.0611,-0.09599 0.0698,-0.01745 0.14836,-0.0087 0.0785,0.0087 0.14835,0.04363 0.0698,0.02618 0.0873,0.06109 l 0.11345,4.913153 q 0.096,-0.157081 0.17453,-0.436337 0.0873,-0.287982 0.20072,-0.610871 0.11344,-0.331616 0.2618,-0.654506 0.15708,-0.331616 0.38397,-0.593418 0.2269,-0.261802 0.54979,-0.40143 0.33162,-0.148354 0.77668,-0.104721 0.29671,0 0.47997,0.191989 0.18326,0.183261 0.19199,0.488697 l 0.0873,3.481969 q 0,0.03491 -0.0175,0.10472 -0.009,0.06109 -0.0698,0.104721 -0.0524,0.05236 -0.15708,0.06109 -0.096,0.01745 -0.25308,-0.04363 z m 1.29156,1.928609 q -0.0436,0.0087 -0.1309,0.02618 -0.0873,0.01745 -0.18326,0.0087 -0.096,-0.0087 -0.16581,-0.05236 -0.0785,-0.04363 -0.0785,-0.148355 0,-0.06109 0.0262,-0.08727 0.0262,-0.02618 0.0873,-0.07854 0.19198,-0.157081 0.32288,-0.40143 0.13963,-0.253075 0.25308,-0.532331 0.11345,-0.287982 0.23562,-0.567238 0.1309,-0.287982 0.29671,-0.514878 0.16581,-0.226895 0.41016,-0.366523 0.24435,-0.139627 0.60214,-0.130901 0.14836,0 0.33162,0.06981 0.18326,0.06981 0.34034,0.191989 0.15708,0.113447 0.2618,0.279255 0.10472,0.165808 0.10472,0.366523 0.0436,0.06981 -0.0873,0.200715 -0.12218,0.130901 -0.34035,0.287983 -0.21816,0.148354 -0.49742,0.314162 -0.27053,0.157081 -0.5236,0.296709 -0.25308,0.139628 -0.44507,0.244349 -0.19199,0.104721 -0.25307,0.157081 -0.0436,0.08727 -0.0698,0.200715 -0.0262,0.113448 -0.0436,0.218169 -0.009,0.09599 -0.0174,0.183261 0,0.07854 0,0.122174 0,0.165808 -0.0175,0.366523 -0.009,0.200715 0.0175,0.383977 0.0349,0.174535 0.14835,0.296709 0.11345,0.113448 0.38398,0.113448 0.28798,0 0.54106,-0.139628 0.25307,-0.148355 0.47124,-0.357796 0.21817,-0.209442 0.3927,-0.453791 0.18326,-0.244348 0.32289,-0.45379 0.14836,-0.218169 0.2618,-0.357796 0.11345,-0.139628 0.19199,-0.139628 0.0873,0 0.18326,0.03491 0.10472,0.02618 0.10472,0.139627 0,0.157082 -0.1309,0.37525 -0.12217,0.218169 -0.33161,0.462517 -0.20072,0.244349 -0.47125,0.488698 -0.2618,0.235622 -0.53233,0.42761 -0.27053,0.183261 -0.53233,0.305436 -0.2618,0.113447 -0.46252,0.113447 -0.3927,0 -0.59341,-0.191988 -0.20072,-0.191988 -0.28799,-0.479971 -0.0785,-0.287982 -0.0873,-0.610871 0,-0.331616 -0.009,-0.610872 z m 1.60572,-2.356219 q -0.14836,0 -0.31416,0.148354 -0.16581,0.139628 -0.31417,0.34907 -0.13962,0.200715 -0.23562,0.418883 -0.0873,0.209442 -0.0873,0.34907 0.13091,0 0.37525,-0.09599 0.25308,-0.104721 0.49743,-0.253076 0.24435,-0.148354 0.42761,-0.314162 0.18326,-0.165808 0.18326,-0.314163 0,-0.07854 -0.0611,-0.130901 -0.0611,-0.05236 -0.14835,-0.08727 -0.0785,-0.03491 -0.16581,-0.05236 -0.0873,-0.01745 -0.15708,-0.01745 z m 6.98139,1.021028 q -0.0349,0 -0.10472,0.03491 -0.0698,0.02618 -0.14836,0.06981 -0.0698,0.03491 -0.13962,0.06981 -0.0698,0.03491 -0.12218,0.03491 -0.0873,0 -0.15708,-0.03491 -0.0611,-0.03491 -0.0611,-0.139628 0,-0.08727 0.0785,-0.165808 0.0873,-0.07854 0.20072,-0.157081 0.11345,-0.07854 0.22689,-0.148355 0.11345,-0.06981 0.16581,-0.139628 -0.0175,-0.139627 -0.0262,-0.523604 -0.009,-0.383976 0,-0.872674 0.0174,-0.497424 0.0611,-1.021028 0.0524,-0.523604 0.14835,-0.933761 0.10472,-0.418884 0.27053,-0.654506 0.16581,-0.235621 0.42761,-0.148354 0.18326,0 0.33162,0.113448 0.14835,0.10472 0.25307,0.270528 0.10472,0.157082 0.15708,0.34907 0.0611,0.191988 0.0611,0.349069 0,0.08727 -0.0436,0.191989 -0.0349,0.09599 -0.13963,0.09599 h -0.0262 q -0.009,0 -0.0174,-0.0087 -0.20945,-0.532331 -0.3578,-0.671959 -0.13963,-0.148354 -0.24435,-0.0087 -0.096,0.139627 -0.16581,0.497424 -0.0611,0.357796 -0.10472,0.82904 -0.0436,0.462517 -0.0785,0.986121 -0.0349,0.514878 -0.0698,0.959941 0.17453,-0.04363 0.28798,-0.08727 0.12217,-0.04363 0.21817,-0.08727 0.096,-0.05236 0.17453,-0.09599 0.0785,-0.05236 0.17454,-0.08727 0.18326,-0.08727 0.40143,-0.165808 0.22689,-0.08727 0.43634,-0.08727 0,0.253075 -0.096,0.418883 -0.0873,0.165808 -0.23562,0.270529 -0.13963,0.104721 -0.32289,0.157081 -0.18326,0.04363 -0.37525,0.07854 -0.18326,0.03491 -0.34907,0.06981 -0.16581,0.03491 -0.28798,0.08727 0.0262,0.567238 0.0698,0.994848 0.0524,0.427611 0.0873,0.759227 0.0436,0.331616 0.0611,0.610871 0.0262,0.270529 0,0.541058 0,0.06109 0,0.174535 0.009,0.104721 -0.009,0.209442 -0.009,0.104721 -0.0611,0.183261 -0.0524,0.06981 -0.16581,0.06981 -0.10472,0 -0.15708,-0.04363 -0.0524,-0.05236 -0.0698,-0.200715 -0.0524,-0.706865 -0.0873,-1.195563 -0.0262,-0.497424 -0.0436,-0.82904 -0.0174,-0.340343 -0.0174,-0.532331 V 46.7091 q 0,-0.03491 -0.009,-0.03491 z m 2.58311,2.775103 q 0.0611,-0.40143 0.0785,-1.003575 0.0262,-0.602145 0.0175,-1.282831 0,-0.680685 -0.0262,-1.405004 -0.0262,-0.72432 -0.0698,-1.370098 -0.0436,-0.654506 -0.10472,-1.169383 -0.0524,-0.514878 -0.11345,-0.811587 0.0785,-0.05236 0.1309,-0.07854 0.0611,-0.03491 0.13963,-0.03491 0.0611,0 0.10472,0.02618 0.0436,0.01745 0.0698,0.08727 0.17453,1.710441 0.23562,3.447062 0.0698,1.736621 0.10472,3.455788 0,0.07854 0,0.218169 0,0.130901 -0.009,0.139627 -0.12217,0.06109 -0.21817,0.06109 -0.096,-0.0087 -0.17453,-0.05236 -0.0785,-0.05236 -0.12217,-0.113447 -0.0436,-0.06109 -0.0436,-0.113448 z m 1.03849,-0.7505 q -0.0611,-0.40143 -0.0611,-0.776679 0,-0.383977 0.0436,-0.77668 0.0524,-0.392703 0.13963,-0.811587 0.096,-0.42761 0.21817,-0.916307 0,-0.09599 0.0524,-0.174535 0.0524,-0.08727 0.13963,-0.139628 0.0873,-0.06109 0.18326,-0.09599 0.096,-0.03491 0.18326,-0.03491 0.19199,0 0.34907,0.122174 0.15708,0.122175 0.27925,0.29671 0.13091,0.174534 0.21817,0.375249 0.096,0.191989 0.15708,0.331616 0.0698,0.305436 0.096,0.698139 0.0349,0.383977 0.009,0.785407 -0.0262,0.40143 -0.12218,0.794133 -0.096,0.383977 -0.27053,0.706866 -0.17453,0.322889 -0.45379,0.541058 -0.27053,0.218168 -0.64578,0.270529 -0.20071,0 -0.30543,-0.130901 -0.10472,-0.139628 -0.15708,-0.331617 -0.0436,-0.200715 -0.0524,-0.40143 0,-0.200714 0,-0.331616 z m 0.44506,-0.02618 q 0,0.08727 0,0.165808 0.009,0.07854 0.0174,0.157082 0.0175,0.06981 0.0349,0.157081 0.0262,0.07854 0.0611,0.183261 h 0.0524 q 0.20944,0 0.35779,-0.139627 0.14836,-0.139628 0.25308,-0.357797 0.10472,-0.226895 0.17453,-0.497424 0.0698,-0.279255 0.10472,-0.541058 0.0436,-0.270529 0.0524,-0.497424 0.0174,-0.235622 0.0174,-0.375249 v -0.174535 q 0,-0.113448 -0.009,-0.253076 -0.009,-0.148354 -0.0349,-0.296709 -0.0174,-0.157081 -0.0611,-0.279255 -0.0436,-0.130901 -0.11345,-0.209442 -0.0698,-0.07854 -0.18326,-0.07854 -0.19199,-0.06109 -0.33162,0.02618 -0.1309,0.08727 -0.21817,0.29671 -0.0785,0.200715 -0.12217,0.497424 -0.0436,0.296709 -0.0524,0.654505 -0.009,0.357796 -0.009,0.759226 0.009,0.40143 0.009,0.80286 z m 3.42961,0.994848 q -0.0436,-0.130901 -0.14836,-0.410156 -0.10472,-0.279256 -0.23562,-0.628325 -0.1309,-0.34907 -0.27925,-0.741773 -0.14836,-0.392703 -0.27926,-0.741773 -0.1309,-0.34907 -0.23562,-0.628325 -0.10472,-0.279256 -0.15708,-0.418884 -0.0524,-0.07854 -0.096,-0.174534 -0.0349,-0.104721 -0.0349,-0.200715 0,-0.104721 0.0436,-0.183262 0.0436,-0.07854 0.13963,-0.113447 0.096,0 0.16581,0.06981 0.0785,0.06109 0.11344,0.148355 l 1.00358,2.574388 q 0.009,-0.122175 0.0436,-0.436337 0.0349,-0.322889 0.0698,-0.680686 0.0349,-0.357796 0.0611,-0.671959 0.0349,-0.322889 0.0524,-0.445063 0.009,-0.08727 0.0175,-0.200715 0.009,-0.113448 0.0349,-0.218169 0.0349,-0.104721 0.096,-0.183261 0.0698,-0.07854 0.19199,-0.07854 0.0873,0 0.12217,0.01745 0.0436,0.01745 0.096,0.104721 l 1.67554,2.86237 v -2.949638 q 0.25307,0 0.34907,0.130901 0.10472,0.122175 0.12217,0.305436 0.0262,0.183262 0,0.392703 -0.0262,0.209442 -0.0174,0.37525 0,0.06109 0.009,0.261802 0.009,0.200715 0.0174,0.462517 0.0174,0.261802 0.0262,0.567238 0.009,0.296709 0.0175,0.558512 0.0175,0.261802 0.0262,0.462517 0.009,0.200715 0.009,0.261802 0.0611,0.174535 -0.009,0.235622 -0.0611,0.05236 -0.17453,0.03491 -0.11345,-0.01745 -0.2269,-0.09599 -0.11344,-0.07854 -0.14835,-0.174535 l -1.78026,-3.019452 q -0.0611,1.317738 -0.12217,2.199138 -0.0611,0.881401 -0.11345,1.483546 -0.0262,0.09599 -0.0873,0.104721 -0.0611,0.0087 -0.1309,-0.01745 -0.0611,-0.03491 -0.12217,-0.09599 -0.0611,-0.06109 -0.10472,-0.104721 z"
         id="text1"
         aria-label="Go with the flow" />
      <path
         style="font-variation-settings:'wght' 700;fill:none;fill-opacity:1;stroke:#ffffff;stroke-width:0.400545;stroke-dasharray:none;marker-end:url(#Sketch)"
         d="m 71.021209,46.792411 c -7.57006,-0.199981 -12.336001,5.68326 -6.174486,13.658551"
         id="path2" />
    </g>
  </g>
</svg>
