<?xml version="1.0" encoding="UTF-8" standalone="no"?>
<!-- Created with Inkscape (http://www.inkscape.org/) -->

<svg
   width="142.19522mm"
   height="18.123283mm"
   viewBox="0 0 142.19522 18.123283"
   version="1.1"
   id="svg1"
   sodipodi:docname="insta.svg"
   inkscape:version="1.3.2 (091e20ef0f, 2023-11-25)"
   xmlns:inkscape="http://www.inkscape.org/namespaces/inkscape"
   xmlns:sodipodi="http://sodipodi.sourceforge.net/DTD/sodipodi-0.dtd"
   xmlns:xlink="http://www.w3.org/1999/xlink"
   xmlns="http://www.w3.org/2000/svg"
   xmlns:svg="http://www.w3.org/2000/svg">
  <sodipodi:namedview
     id="namedview1"
     pagecolor="#ffffff"
     bordercolor="#000000"
     borderopacity="0.25"
     inkscape:showpageshadow="2"
     inkscape:pageopacity="0.0"
     inkscape:pagecheckerboard="0"
     inkscape:deskcolor="#d1d1d1"
     inkscape:document-units="mm"
     inkscape:zoom="2.7929179"
     inkscape:cx="268.71538"
     inkscape:cy="34.193629"
     inkscape:window-width="2560"
     inkscape:window-height="1371"
     inkscape:window-x="0"
     inkscape:window-y="0"
     inkscape:window-maximized="1"
     inkscape:current-layer="svg1" />
  <defs
     id="defs1">
    <radialGradient
       id="d"
       cx="147.694"
       cy="473.45499"
       r="65"
       xlink:href="#b"
       gradientUnits="userSpaceOnUse"
       gradientTransform="matrix(0.01483947,0.07411376,-0.30557677,0.06118531,211.65352,17.882977)"
       fx="147.694"
       fy="473.45499" />
    <linearGradient
       id="b">
      <stop
         offset="0"
         stop-color="#3771c8"
         id="stop1" />
      <stop
         stop-color="#3771c8"
         offset=".128"
         id="stop2" />
      <stop
         offset="1"
         stop-color="#60f"
         stop-opacity="0"
         id="stop3" />
    </linearGradient>
    <radialGradient
       id="c"
       cx="158.429"
       cy="578.08801"
       r="65"
       xlink:href="#a"
       gradientUnits="userSpaceOnUse"
       gradientTransform="matrix(0,-0.16909013,0.15731001,0,-16.965984,95.731513)"
       fx="158.429"
       fy="578.08801" />
    <linearGradient
       id="a">
      <stop
         offset="0"
         stop-color="#fd5"
         id="stop4" />
      <stop
         offset=".1"
         stop-color="#fd5"
         id="stop5" />
      <stop
         offset=".5"
         stop-color="#ff543e"
         id="stop6" />
      <stop
         offset="1"
         stop-color="#c837ab"
         id="stop7" />
    </linearGradient>
  </defs>
  <g
     id="layer1"
     transform="translate(-33.90239,-47.505214)">
    <a
       id="a11"
       xlink:href="https://www.instagram.com/rubberboots89">
      <g
         id="g9">
        <rect
           style="opacity:0.6;fill:#4d1230;fill-opacity:1;stroke:none;stroke-width:0.253;stroke-dasharray:none"
           id="rect9"
           width="142.19522"
           height="18.123283"
           x="33.90239"
           y="47.505215" />
        <g
           id="g6"
           transform="translate(-1.6324976,-5.9767999)">
          <g
             id="g3"
             transform="matrix(0.8616002,0,0,0.8616002,10.116481,8.6560291)">
            <path
               fill="url(#c)"
               d="m 76.574734,56.998731 c -2.315585,0 -2.992806,0.0024 -3.124445,0.01331 -0.475197,0.0395 -0.770895,0.11432 -1.09304,0.27471 -0.248262,0.123278 -0.444058,0.266179 -0.637293,0.466495 -0.35192,0.365314 -0.565204,0.814747 -0.642413,1.348981 -0.03754,0.259354 -0.04846,0.312249 -0.05068,1.637001 -8.38e-4,0.441583 0,1.02274 0,1.802252 0,2.313709 0.0025,2.990247 0.01365,3.12163 0.03839,0.462401 0.110908,0.75332 0.264473,1.071541 0.293479,0.60914 0.85399,1.066422 1.514319,1.237049 0.228641,0.05887 0.481169,0.09129 0.805361,0.106642 0.137356,0.006 1.537354,0.01024 2.938206,0.01024 1.400852,0 2.801705,-0.0017 2.935645,-0.0085 0.375382,-0.01766 0.593358,-0.04692 0.83437,-0.109202 0.664593,-0.17148 1.214869,-0.621937 1.514318,-1.239608 0.150579,-0.310543 0.226934,-0.612553 0.261487,-1.05081 0.0075,-0.09555 0.01067,-1.618999 0.01067,-3.140399 0,-1.521656 -0.0034,-3.042288 -0.01093,-3.137839 -0.03498,-0.445338 -0.111334,-0.744789 -0.266775,-1.061303 -0.127547,-0.259098 -0.269165,-0.45259 -0.474772,-0.650432 -0.366934,-0.350469 -0.815685,-0.563753 -1.350432,-0.640877 -0.259098,-0.03745 -0.310712,-0.04854 -1.636489,-0.05085 z"
               id="path7"
               style="fill:url(#c);stroke-width:0.0853136" />
            <path
               fill="url(#d)"
               d="m 76.574734,56.998731 c -2.315585,0 -2.992806,0.0024 -3.124445,0.01331 -0.475197,0.0395 -0.770895,0.11432 -1.09304,0.27471 -0.248262,0.123278 -0.444058,0.266179 -0.637293,0.466495 -0.35192,0.365314 -0.565204,0.814747 -0.642413,1.348981 -0.03754,0.259354 -0.04846,0.312249 -0.05068,1.637001 -8.38e-4,0.441583 0,1.02274 0,1.802252 0,2.313709 0.0025,2.990247 0.01365,3.12163 0.03839,0.462401 0.110908,0.75332 0.264473,1.071541 0.293479,0.60914 0.85399,1.066422 1.514319,1.237049 0.228641,0.05887 0.481169,0.09129 0.805361,0.106642 0.137356,0.006 1.537354,0.01024 2.938206,0.01024 1.400852,0 2.801705,-0.0017 2.935645,-0.0085 0.375382,-0.01766 0.593358,-0.04692 0.83437,-0.109202 0.664593,-0.17148 1.214869,-0.621937 1.514318,-1.239608 0.150579,-0.310543 0.226934,-0.612553 0.261487,-1.05081 0.0075,-0.09555 0.01067,-1.618999 0.01067,-3.140399 0,-1.521656 -0.0034,-3.042288 -0.01093,-3.137839 -0.03498,-0.445338 -0.111334,-0.744789 -0.266775,-1.061303 -0.127547,-0.259098 -0.269165,-0.45259 -0.474772,-0.650432 -0.366934,-0.350469 -0.815685,-0.563753 -1.350432,-0.640877 -0.259098,-0.03745 -0.310712,-0.04854 -1.636489,-0.05085 z"
               id="path8"
               style="fill:url(#d);stroke-width:0.0853136" />
            <path
               fill="#ffffff"
               d="m 76.572175,58.449065 c -1.11215,0 -1.251724,0.0049 -1.68853,0.02474 -0.435953,0.01996 -0.733527,0.08898 -0.993905,0.19025 -0.269336,0.104595 -0.497806,0.244509 -0.725423,0.472212 -0.227787,0.227617 -0.367702,0.456087 -0.472638,0.725337 -0.101523,0.260463 -0.170627,0.558122 -0.190249,0.993905 -0.01954,0.436807 -0.02465,0.576465 -0.02465,1.688615 0,1.11215 0.0049,1.251297 0.02474,1.688103 0.02005,0.435953 0.08907,0.733528 0.190249,0.993905 0.104681,0.269336 0.244595,0.497806 0.472297,0.725423 0.227532,0.227788 0.456002,0.368043 0.725167,0.472638 0.260548,0.101268 0.558208,0.170286 0.994076,0.19025 0.436806,0.01988 0.576294,0.02474 1.688359,0.02474 1.112238,0 1.251383,-0.0049 1.68819,-0.02474 0.435953,-0.01996 0.733867,-0.08898 0.994416,-0.19025 0.269252,-0.104595 0.497379,-0.24485 0.724913,-0.472638 0.227785,-0.227617 0.367701,-0.456087 0.472637,-0.725337 0.100671,-0.260463 0.169774,-0.558123 0.19025,-0.993905 0.01964,-0.436807 0.02473,-0.576039 0.02473,-1.688189 0,-1.11215 -0.0051,-1.251723 -0.02473,-1.688529 -0.02048,-0.435954 -0.08958,-0.733528 -0.19025,-0.993906 -0.104936,-0.269335 -0.244852,-0.497805 -0.472637,-0.725422 -0.227789,-0.227788 -0.455577,-0.367703 -0.725168,-0.472212 -0.261061,-0.101267 -0.558805,-0.170286 -0.994757,-0.19025 -0.436808,-0.01988 -0.575869,-0.02474 -1.688362,-0.02474 z m -0.367361,0.737964 c 0.109031,-1.71e-4 0.230688,0 0.367361,0 1.09338,0 1.222971,0.0039 1.654745,0.02354 0.399269,0.01826 0.615965,0.08497 0.760318,0.141024 0.1911,0.07422 0.327346,0.162949 0.47059,0.306276 0.143327,0.143327 0.232051,0.279829 0.306446,0.470932 0.05605,0.14418 0.122851,0.360877 0.141024,0.760145 0.01964,0.431688 0.02389,0.561365 0.02389,1.654234 0,1.092869 -0.0043,1.222545 -0.02389,1.654233 -0.01825,0.399268 -0.08497,0.615965 -0.141024,0.760146 -0.07422,0.191102 -0.163119,0.327178 -0.306446,0.47042 -0.143327,0.143327 -0.279403,0.232053 -0.47059,0.306276 -0.144182,0.05631 -0.361049,0.122852 -0.760318,0.141109 -0.431687,0.01962 -0.561365,0.02389 -1.654745,0.02389 -1.093466,0 -1.223058,-0.0043 -1.654745,-0.02389 -0.399269,-0.01843 -0.615966,-0.08514 -0.760402,-0.141194 -0.191103,-0.07422 -0.327605,-0.16295 -0.470932,-0.306277 -0.143327,-0.143327 -0.232053,-0.279487 -0.306447,-0.470676 -0.05605,-0.14418 -0.122852,-0.360877 -0.141023,-0.760145 -0.01962,-0.431688 -0.02355,-0.561365 -0.02355,-1.654916 0,-1.093552 0.0039,-1.222546 0.02355,-1.654233 0.01826,-0.399269 0.08497,-0.615966 0.141023,-0.760317 0.07422,-0.191103 0.16312,-0.327604 0.306447,-0.470932 0.143327,-0.143327 0.279829,-0.232053 0.470932,-0.306446 0.144351,-0.05631 0.361133,-0.122852 0.760402,-0.141195 0.377769,-0.01706 0.524167,-0.02218 1.287384,-0.02304 z m 2.553271,0.67995 c -0.271299,0 -0.491407,0.219854 -0.491407,0.491237 0,0.271298 0.220108,0.491407 0.491407,0.491407 0.271296,0 0.491407,-0.220109 0.491407,-0.491407 0,-0.271298 -0.220111,-0.491407 -0.491407,-0.491407 z m -2.18591,0.574162 c -1.161376,0 -2.102984,0.941608 -2.102984,2.102984 0,1.161376 0.941608,2.102557 2.102984,2.102557 1.161375,0 2.102642,-0.941181 2.102642,-2.102557 0,-1.161376 -0.941351,-2.102984 -2.102727,-2.102984 z m 0,0.737964 c 0.753832,0 1.365018,0.611102 1.365018,1.36502 0,0.753832 -0.611186,1.36502 -1.365018,1.36502 -0.753918,0 -1.36502,-0.611188 -1.36502,-1.36502 0,-0.753918 0.611102,-1.36502 1.36502,-1.36502 z"
               id="path9-6"
               style="stroke-width:0.0853136" />
          </g>
          <path
             style="-inkscape-font-specification:Anton;fill:#d63384;stroke-width:0.4"
             d="m 88.187894,66.553749 q -0.731738,0 -1.372526,-0.214974 -0.636654,-0.21084 -1.12448,-0.669727 -0.487826,-0.463021 -0.764812,-1.198894 -0.272851,-0.735872 -0.272851,-1.781804 0,-1.298112 0.425814,-2.22002 0.425814,-0.926042 1.223698,-1.418002 0.802019,-0.49196 1.922364,-0.49196 1.066602,0 1.785938,0.44235 0.723471,0.442351 1.087273,1.273308 0.367936,0.826824 0.367936,1.980242 0,1.207162 -0.367936,1.856218 -0.367936,0.644922 -1.21543,0.644922 -0.607715,0 -0.897103,-0.248047 -0.289389,-0.252181 -0.434083,-0.636654 -0.07441,0.376205 -0.276985,0.615984 -0.198438,0.235644 -0.537435,0.235644 -0.409278,0 -0.686264,-0.28112 -0.276986,-0.285254 -0.417546,-0.74414 -0.136425,-0.463021 -0.136425,-0.996322 0,-0.595313 0.107487,-1.087273 0.111621,-0.496094 0.37207,-0.789616 0.260449,-0.293523 0.711068,-0.293523 0.297656,0 0.49196,0.161231 0.198438,0.157096 0.3514,0.417546 l 0.16123,-0.541569 h 0.934311 v 2.645834 q 0,0.322461 0.09922,0.463021 0.09922,0.136426 0.268718,0.136426 0.272852,0 0.363802,-0.392741 0.09095,-0.392741 0.09095,-1.14515 0,-0.847494 -0.202572,-1.455209 -0.202572,-0.61185 -0.669727,-0.938445 -0.463021,-0.330729 -1.260905,-0.330729 -1.219565,0 -1.852084,0.814421 -0.628386,0.814421 -0.628386,2.335776 0,1.434538 0.657325,2.158008 0.661458,0.719336 1.756999,0.719336 0.44235,0 1.099675,-0.08682 l 0.128157,0.93431 Q 88.746,66.553749 88.187894,66.553749 Z m -0.06615,-2.85254 q 0.19017,0 0.256316,-0.194304 0.07028,-0.198437 0.07028,-0.425814 v -1.620573 q -0.256315,0 -0.405143,0.103353 -0.144694,0.103352 -0.206706,0.363802 -0.05788,0.260449 -0.05788,0.735872 0,0.243913 0.02894,0.483692 0.02894,0.239779 0.103353,0.396875 0.07855,0.157097 0.21084,0.157097 z m 3.881935,2.199349 v -6.201174 h 1.504819 v 0.690398 q 0.107487,-0.359669 0.380338,-0.56224 0.272852,-0.202572 0.686264,-0.202572 v 1.236101 q -0.181901,0 -0.434083,0.04134 -0.252181,0.03721 -0.44235,0.107487 -0.190169,0.06615 -0.190169,0.148828 v 4.741831 z m 4.129983,0.06615 q -0.496094,0 -0.760678,-0.206705 -0.260449,-0.206706 -0.355534,-0.574643 -0.09508,-0.37207 -0.09508,-0.868164 v -4.617808 h 1.488281 v 4.444175 q 0,0.372071 0.05788,0.520899 0.05788,0.144694 0.272852,0.144694 0.23151,0 0.289388,-0.206706 0.06201,-0.206706 0.06201,-0.533301 v -4.369761 h 1.475879 v 6.201174 H 97.088646 V 65.2391 q -0.140559,0.355534 -0.338997,0.541569 -0.194304,0.186035 -0.615983,0.186035 z m 5.506644,0 q -0.3638,0 -0.59118,-0.177767 -0.22738,-0.181901 -0.3638,-0.549837 v 0.661458 h -1.504821 v -7.276044 h 1.504821 v 1.736329 q 0.13642,-0.343132 0.3762,-0.533301 0.24391,-0.194304 0.69453,-0.194304 0.60772,0 0.85577,0.442351 0.25218,0.44235 0.25218,1.157552 v 3.050978 q 0,0.475423 -0.1323,0.859896 -0.12815,0.380339 -0.401,0.603581 -0.26872,0.219108 -0.6904,0.219108 z m -0.61185,-1.153418 q 0.23564,0 0.28525,-0.231511 0.0496,-0.23151 0.0496,-0.570508 v -2.422592 q 0,-0.343131 -0.0496,-0.570508 -0.0496,-0.23151 -0.28112,-0.23151 -0.23978,0 -0.29352,0.235644 -0.0537,0.231511 -0.0537,0.566374 v 2.422592 q 0,0.334864 0.0537,0.570508 0.0537,0.231511 0.28939,0.231511 z m 4.85758,1.153418 q -0.3638,0 -0.59117,-0.177767 -0.22738,-0.181901 -0.36381,-0.549837 v 0.661458 h -1.50481 v -7.276044 h 1.50481 v 1.736329 q 0.13643,-0.343132 0.37621,-0.533301 0.24391,-0.194304 0.69453,-0.194304 0.60772,0 0.85576,0.442351 0.25218,0.44235 0.25218,1.157552 v 3.050978 q 0,0.475423 -0.13229,0.859896 -0.12816,0.380339 -0.40101,0.603581 -0.26872,0.219108 -0.6904,0.219108 z m -0.61184,-1.153418 q 0.23564,0 0.28525,-0.231511 0.0496,-0.23151 0.0496,-0.570508 v -2.422592 q 0,-0.343131 -0.0496,-0.570508 -0.0496,-0.23151 -0.28112,-0.23151 -0.23978,0 -0.29352,0.235644 -0.0537,0.231511 -0.0537,0.566374 v 2.422592 q 0,0.334864 0.0537,0.570508 0.0537,0.231511 0.28939,0.231511 z m 4.11758,1.153418 q -0.66146,0 -1.0542,-0.248047 -0.39274,-0.248047 -0.56224,-0.715202 -0.1695,-0.467155 -0.1695,-1.124479 v -2.492872 q 0,-0.864031 0.49609,-1.306381 0.4961,-0.446485 1.36426,-0.446485 1.78594,0 1.78594,1.752866 v 0.450618 q 0,0.818555 -0.0165,1.099675 h -2.14974 v 1.198894 q 0,0.165364 0.0207,0.326595 0.0207,0.157096 0.0909,0.260449 0.0744,0.103353 0.23565,0.103353 0.23151,0 0.28939,-0.198437 0.0579,-0.202572 0.0579,-0.525033 v -0.595313 h 1.47175 v 0.3514 q 0,0.694532 -0.17363,1.165821 -0.1695,0.467155 -0.57878,0.706934 -0.40514,0.235644 -1.10794,0.235644 z m -0.3142,-3.76618 h 0.7028 v -0.835091 q 0,-0.334863 -0.0827,-0.479558 -0.0827,-0.148828 -0.24805,-0.148828 -0.17776,0 -0.27698,0.14056 -0.0951,0.14056 -0.0951,0.487826 z m 2.71198,3.700034 v -6.201174 h 1.50482 v 0.690398 q 0.10749,-0.359669 0.38034,-0.56224 0.27285,-0.202572 0.68626,-0.202572 v 1.236101 q -0.1819,0 -0.43408,0.04134 -0.25218,0.03721 -0.44235,0.107487 -0.19017,0.06615 -0.19017,0.148828 v 4.741831 z m 5.41156,0.06615 q -0.3638,0 -0.59118,-0.177767 -0.22737,-0.181901 -0.3638,-0.549837 v 0.661458 h -1.50482 v -7.276044 h 1.50482 v 1.736329 q 0.13643,-0.343132 0.37621,-0.533301 0.24391,-0.194304 0.69453,-0.194304 0.60771,0 0.85576,0.442351 0.25218,0.44235 0.25218,1.157552 v 3.050978 q 0,0.475423 -0.13229,0.859896 -0.12816,0.380339 -0.40101,0.603581 -0.26872,0.219108 -0.6904,0.219108 z m -0.61185,-1.153418 q 0.23565,0 0.28526,-0.231511 0.0496,-0.23151 0.0496,-0.570508 v -2.422592 q 0,-0.343131 -0.0496,-0.570508 -0.0496,-0.23151 -0.28112,-0.23151 -0.23978,0 -0.29353,0.235644 -0.0537,0.231511 -0.0537,0.566374 v 2.422592 q 0,0.334864 0.0537,0.570508 0.0537,0.231511 0.28939,0.231511 z m 4.18373,1.153418 q -1.85209,0 -1.85209,-1.922364 v -2.488738 q 0,-0.876432 0.49196,-1.397331 0.49196,-0.525033 1.36013,-0.525033 0.8723,0 1.36426,0.525033 0.49196,0.520899 0.49196,1.397331 v 2.488738 q 0,1.922364 -1.85622,1.922364 z m 0,-1.141016 q 0.18603,0 0.26458,-0.132291 0.0827,-0.136426 0.0827,-0.343132 v -3.030307 q 0,-0.54157 -0.34726,-0.54157 -0.34727,0 -0.34727,0.54157 v 3.030307 q 0,0.206706 0.0785,0.343132 0.0827,0.132291 0.26872,0.132291 z m 4.2044,1.141016 q -1.85209,0 -1.85209,-1.922364 v -2.488738 q 0,-0.876432 0.49196,-1.397331 0.49196,-0.525033 1.36013,-0.525033 0.8723,0 1.36426,0.525033 0.49196,0.520899 0.49196,1.397331 v 2.488738 q 0,1.922364 -1.85622,1.922364 z m 0,-1.141016 q 0.18603,0 0.26458,-0.132291 0.0827,-0.136426 0.0827,-0.343132 v -3.030307 q 0,-0.54157 -0.34726,-0.54157 -0.34727,0 -0.34727,0.54157 v 3.030307 q 0,0.206706 0.0786,0.343132 0.0827,0.132291 0.26872,0.132291 z m 3.67523,1.141016 q -0.59945,0 -0.81029,-0.252181 -0.20671,-0.256315 -0.20671,-0.781348 v -3.865398 h -0.41754 v -1.128614 h 0.41754 v -1.314649 h 1.43868 v 1.314649 h 0.41754 v 1.128614 h -0.41754 v 3.518133 q 0,0.152962 0.0496,0.214974 0.0496,0.06201 0.19017,0.06201 0.0992,0 0.17777,-0.01654 v 1.008724 q -0.0496,0.01654 -0.31006,0.06201 -0.26045,0.04961 -0.52916,0.04961 z m 3.00963,0 q -1.83555,0 -1.83555,-1.860352 v -0.49196 h 1.48828 v 0.727605 q 0,0.21084 0.0827,0.330729 0.0827,0.119889 0.26458,0.119889 0.32246,0 0.32246,-0.483691 0,-0.405144 -0.1695,-0.603581 -0.1695,-0.202572 -0.41341,-0.388607 l -0.78962,-0.607715 q -0.37207,-0.289388 -0.56637,-0.611849 -0.1943,-0.322462 -0.1943,-0.897104 0,-0.533301 0.25218,-0.880566 0.25631,-0.347266 0.67386,-0.516765 0.42168,-0.169499 0.9095,-0.169499 1.80248,0 1.80248,1.798341 v 0.115755 h -1.52962 v -0.235645 q 0,-0.186035 -0.0662,-0.359668 -0.062,-0.173633 -0.24805,-0.173633 -0.31419,0 -0.31419,0.33073 0,0.334863 0.26458,0.525033 l 0.91778,0.669726 q 0.42995,0.310059 0.71933,0.735873 0.29353,0.425814 0.29353,1.132748 0,0.876433 -0.50023,1.335319 -0.4961,0.458887 -1.36426,0.458887 z m 4.11345,0.0124 q -1.02526,0 -1.46348,-0.587045 -0.43822,-0.587044 -0.43822,-1.661915 v -0.483691 q 0,-0.553972 0.1323,-0.897103 0.13229,-0.343132 0.48782,-0.525033 -0.33486,-0.136426 -0.47542,-0.454753 -0.14056,-0.322461 -0.14056,-0.797884 v -0.19017 q 0,-0.967383 0.48369,-1.405599 0.48783,-0.442351 1.41387,-0.442351 0.95085,0 1.42213,0.454753 0.47129,0.450619 0.47129,1.451075 0,0.525033 -0.12402,0.880567 -0.12402,0.355534 -0.49196,0.51263 0.39274,0.202572 0.5085,0.533301 0.11575,0.326595 0.11575,0.880567 v 0.483691 q 0,1.074871 -0.43821,1.661915 -0.43822,0.587045 -1.46348,0.587045 z m 0,-4.766636 q 0.38447,0 0.38447,-0.694532 0,-0.23151 -0.0827,-0.438216 -0.0785,-0.206706 -0.30179,-0.206706 -0.22324,0 -0.30593,0.206706 -0.0785,0.206706 -0.0785,0.438216 0,0.694532 0.38447,0.694532 z m 0,3.327963 q 0.39687,0 0.39687,-0.640788 v -0.665592 q 0,-0.33073 -0.091,-0.516765 -0.0868,-0.186035 -0.30592,-0.186035 -0.22738,0 -0.31006,0.186035 -0.0827,0.186035 -0.0827,0.516765 v 0.665592 q 0,0.640788 0.39274,0.640788 z m 4.17132,1.42627 q -0.45889,0 -0.85576,-0.157096 -0.39688,-0.161231 -0.64079,-0.479558 -0.24391,-0.318327 -0.24391,-0.789616 v -0.785482 h 1.40146 v 0.148828 q 0,0.181901 0.0165,0.363803 0.0207,0.181901 0.0951,0.30179 0.0786,0.119889 0.25218,0.119889 0.24392,0 0.339,-0.132291 0.0951,-0.136426 0.0951,-0.388607 v -1.459343 q -0.10336,0.190169 -0.31006,0.310058 -0.20671,0.11989 -0.50436,0.11989 -0.59945,0 -0.92605,-0.239779 -0.32659,-0.243913 -0.45062,-0.72347 -0.12402,-0.479558 -0.12402,-1.198894 0,-0.727604 0.17777,-1.269174 0.17777,-0.545703 0.59118,-0.847493 0.41754,-0.301791 1.12861,-0.301791 0.76068,0 1.18649,0.260449 0.42582,0.256316 0.59945,0.777214 0.17777,0.516765 0.17777,1.298113 v 1.967839 q 0,0.756543 -0.0661,1.33532 -0.062,0.578776 -0.26458,0.971517 -0.20258,0.392741 -0.60358,0.595313 -0.40101,0.202571 -1.07074,0.202571 z m 0.0744,-4.113445 q 0.38448,0 0.38448,-0.516765 v -0.901237 q 0,-0.537435 -0.36381,-0.537435 -0.25631,0 -0.30592,0.219108 -0.0496,0.214974 -0.0496,0.553971 v 0.587045 q 0,0.595313 0.33486,0.595313 z"
             id="text3"
             aria-label="@rubberboots89" />
        </g>
      </g>
    </a>
  </g>
</svg>
