<?xml version="1.0" encoding="UTF-8" standalone="no"?>
<!-- Created with Inkscape (http://www.inkscape.org/) -->

<svg
   width="41.861492mm"
   height="12.798298mm"
   viewBox="0 0 41.861492 12.798298"
   version="1.1"
   id="svg1"
   sodipodi:docname="jtck.svg"
   inkscape:version="1.3.2 (091e20ef0f, 2023-11-25)"
   xmlns:inkscape="http://www.inkscape.org/namespaces/inkscape"
   xmlns:sodipodi="http://sodipodi.sourceforge.net/DTD/sodipodi-0.dtd"
   xmlns="http://www.w3.org/2000/svg"
   xmlns:svg="http://www.w3.org/2000/svg">
  <sodipodi:namedview
     id="namedview1"
     pagecolor="#ffffff"
     bordercolor="#000000"
     borderopacity="0.25"
     inkscape:showpageshadow="2"
     inkscape:pageopacity="0.0"
     inkscape:pagecheckerboard="0"
     inkscape:deskcolor="#d1d1d1"
     inkscape:document-units="mm"
     inkscape:zoom="9.4869906"
     inkscape:cx="79.108332"
     inkscape:cy="24.191022"
     inkscape:window-width="2560"
     inkscape:window-height="1371"
     inkscape:window-x="0"
     inkscape:window-y="0"
     inkscape:window-maximized="1"
     inkscape:current-layer="svg1" />
  <defs
     id="defs1">
    <marker
       style="overflow:visible"
       id="Sketch"
       refX="0"
       refY="0"
       orient="auto-start-reverse"
       markerWidth="1"
       markerHeight="1"
       viewBox="0 0 1 1"
       preserveAspectRatio="xMidYMid">
      <path
         style="fill:none;stroke:context-stroke;stroke-width:0.4;stroke-linecap:round"
         d="m -4.5421538,-3.2452189 3.83900644,2.60235235 0.56348102,0.59255887 L -2.4921466,1.1808717 -4.4106004,2.139946 -4.5795251,2.8245356 -4.703996,3.0734773 -4.3128019,2.6822832 -3.9749524,2.3088707 0.66603196,-0.12720162 0.02589622,-0.32279868 -1.7613224,-0.60366199 -3.580874,-2.0472634 -4.3186004,-2.392437 l -1.2937699,-0.2549423 2.1825172,0.042166 0.6996091,1.0554873 1.4406512,0.1145833 1.20879971,0.91674665 1.53333299,0.47138389 -1.85995289,1.23785256 -2.03832621,0.9224332 -1.5469949,0.9779853"
         id="path9" />
    </marker>
  </defs>
  <g
     id="layer1"
     transform="translate(-84.069252,-94.276022)">
    <g
       id="g8"
       transform="translate(-4.4553383,3.9383179)">
      <path
         d="m 88.524592,101.88474 q 0,-0.0165 0.02756,-0.0441 0.02756,-0.0276 0.0441,-0.0276 0.07166,0.15985 0.159852,0.33624 0.08819,0.17639 0.20395,0.32521 0.121267,0.14883 0.275607,0.24254 0.15434,0.0992 0.352778,0.0992 0.176388,0 0.30868,-0.0937 0.132291,-0.0937 0.181901,-0.27561 0.03307,-0.45199 -0.0055,-0.89848 -0.03858,-0.44648 -0.09922,-0.88745 -0.06063,-0.44649 -0.121267,-0.887459 -0.06063,-0.446484 -0.06615,-0.89848 0,-0.02756 -0.0055,-0.06615 0,-0.0441 0.01102,-0.08268 0.01102,-0.03858 0.03307,-0.06615 0.02205,-0.02756 0.07717,-0.02756 0.06063,0 0.104731,0.07717 0.137804,0.804774 0.248047,1.637104 0.110242,0.83234 0.110242,1.64814 0,0.22048 -0.03307,0.4079 -0.02756,0.18741 -0.115756,0.3197 -0.08819,0.1378 -0.242534,0.21497 -0.15434,0.0827 -0.396875,0.0827 -0.209461,0 -0.402387,-0.0992 -0.187413,-0.0937 -0.336241,-0.25907 -0.143316,-0.15986 -0.23151,-0.36381 -0.08268,-0.20394 -0.08268,-0.41341 z m 2.160762,0.0221 q -0.03858,-0.25356 -0.03858,-0.49058 0,-0.24253 0.02756,-0.49058 0.03307,-0.24805 0.08819,-0.51263 0.06063,-0.2701 0.137804,-0.578775 0,-0.06063 0.03307,-0.110243 0.03307,-0.05512 0.08819,-0.0882 0.05512,-0.03858 0.115755,-0.06063 0.06063,-0.02205 0.115755,-0.02205 0.121268,0 0.220486,0.07717 0.09922,0.07717 0.176389,0.187413 0.08268,0.110243 0.137804,0.237022 0.06063,0.12127 0.09922,0.20946 0.0441,0.19293 0.06063,0.44097 0.02205,0.24254 0.0055,0.4961 -0.01654,0.25356 -0.07717,0.5016 -0.06063,0.24254 -0.170876,0.44649 -0.110243,0.20395 -0.286632,0.34175 -0.170877,0.1378 -0.407899,0.17088 -0.12678,0 -0.192925,-0.0827 -0.06615,-0.0882 -0.09922,-0.20946 -0.02756,-0.12678 -0.03307,-0.25356 0,-0.12678 0,-0.20946 z m 0.28112,-0.0165 q 0,0.0551 0,0.10473 0.0055,0.0496 0.01102,0.0992 0.01102,0.0441 0.02205,0.0992 0.01654,0.0496 0.03858,0.11576 h 0.03307 q 0.132292,0 0.225999,-0.0882 0.09371,-0.0882 0.159852,-0.22599 0.06615,-0.14332 0.110243,-0.3142 0.0441,-0.17638 0.06615,-0.34175 0.02756,-0.17088 0.03307,-0.31419 0.01103,-0.14883 0.01103,-0.23702 v -0.11025 q 0,-0.0717 -0.0055,-0.15985 -0.0055,-0.0937 -0.02205,-0.18741 -0.01102,-0.0992 -0.03858,-0.17639 -0.02756,-0.0827 -0.07166,-0.13229 -0.0441,-0.04961 -0.115755,-0.04961 -0.121267,-0.03858 -0.209462,0.01654 -0.08268,0.05513 -0.137803,0.187415 -0.04961,0.12678 -0.07717,0.31419 -0.02756,0.18741 -0.03307,0.41341 -0.0055,0.226 -0.0055,0.47956 0.0055,0.25356 0.0055,0.50712 z m 1.317403,0.66145 q 0,-0.35829 -0.01654,-0.75516 -0.01103,-0.39688 -0.02756,-0.79926 -0.01102,-0.4079 -0.0055,-0.79926 0.0055,-0.391366 0.04961,-0.733119 0.01102,-0.0055 0.04961,-0.0055 0.0441,-0.0055 0.06063,-0.0055 0.07717,0 0.121267,0.02756 0.04961,0.02205 0.04961,0.104731 0,0.325217 -0.0055,0.711072 0,0.38033 -0.0055,0.77721 0,0.39136 0,0.77721 0,0.38585 0.01103,0.70004 0.0055,0.0937 -0.03859,0.12127 -0.03858,0.0331 -0.09922,0.0331 -0.06615,0 -0.110243,-0.0331 -0.0441,-0.0276 -0.03307,-0.12127 z M 92.16261,98.605015 q 0,-0.06614 0.0441,-0.08819 0.0441,-0.02205 0.09922,-0.02205 0.110243,0 0.137803,0.07166 0.02756,0.07166 0.02756,0.165365 -0.03307,0.06063 -0.08268,0.08819 -0.04961,0.02205 -0.104731,0.01102 -0.04961,-0.01654 -0.08819,-0.07166 -0.03307,-0.05512 -0.03307,-0.154341 z m 1.014235,3.985285 q -0.06063,-0.74414 -0.110243,-1.48828 -0.0441,-0.74965 -0.09922,-1.554427 0,-0.132292 0.143316,-0.132292 h 0.0441 q 0.01654,0 0.03858,0.0441 0.02205,0.0441 0.0441,0.165365 0.02756,0.115755 0.05512,0.35829 0.03307,0.237017 0.07717,0.622877 0.0441,0.38585 0.09922,0.96462 0.115755,-0.37482 0.181901,-0.7276 0.06615,-0.35278 0.170877,-0.63941 0.104731,-0.292145 0.292144,-0.512631 0.192925,-0.220486 0.551214,-0.325217 0.198438,0.03307 0.319705,0.242534 0.121267,0.20395 0.192925,0.507114 0.07166,0.30317 0.09922,0.66146 0.02756,0.35278 0.03307,0.678 0.0055,0.32521 0.0055,0.58428 0,0.25356 0.01102,0.36381 -0.01654,0.0441 -0.04961,0.0772 -0.03307,0.0331 -0.07717,0.0496 -0.03858,0.011 -0.07717,0.006 -0.03859,-0.011 -0.07166,-0.0606 0,-0.0606 -0.01102,-0.24804 -0.01103,-0.18742 -0.02756,-0.43546 -0.01654,-0.25356 -0.03858,-0.53468 -0.01654,-0.28663 -0.03307,-0.53468 -0.01102,-0.25356 -0.02205,-0.44097 -0.01102,-0.18741 -0.01654,-0.24805 -0.115755,-0.203948 -0.23151,-0.231508 -0.110243,-0.02756 -0.225998,0.07166 -0.110243,0.09922 -0.214974,0.30317 -0.104731,0.20395 -0.198438,0.46302 -0.09371,0.25356 -0.176388,0.53468 -0.08268,0.28112 -0.143316,0.5457 -0.06063,0.25907 -0.104731,0.47404 -0.03858,0.20947 -0.04961,0.32522 -0.01654,0.0386 -0.07166,0.0772 -0.04961,0.0331 -0.110243,0.0496 -0.05512,0.0165 -0.115755,0.011 -0.05512,-0.011 -0.08268,-0.0661 z m 5.186932,-2.28203 q -0.05512,0.0276 -0.104731,0.0606 -0.0441,0.0276 -0.08819,0.0551 -0.0441,0.0221 -0.08819,0.0331 -0.0441,0.011 -0.09371,0 -0.03307,0 -0.05512,-0.0386 -0.02205,-0.0441 -0.03307,-0.0937 -0.01654,-0.0551 -0.02205,-0.10474 -0.0055,-0.0551 0,-0.0827 l 0.529166,-0.303165 0.03307,-1.41111 q 0.01102,-0.07166 0.08819,-0.05512 0.07717,0.01102 0.159853,0.03307 0.01102,0 0.03307,0.01102 0.02756,0.0055 0.03858,0.01102 -0.01102,0.148828 -0.02756,0.325216 -0.01102,0.170877 -0.02205,0.347266 -0.01102,0.170876 -0.01654,0.336241 0,0.165364 0.01654,0.297656 l 0.826823,-0.231511 q 0.02205,-0.0055 0.03307,0.03307 0.01654,0.03307 0.02756,0.08268 0.01654,0.04961 0.02205,0.09922 0.0055,0.04961 0.0055,0.04961 l -0.937065,0.396873 q 0,0.0496 0.0055,0.23702 0.01102,0.18742 0.02205,0.44649 0.01103,0.25356 0.02205,0.55121 0.01102,0.29215 0.02205,0.54571 0.01102,0.25355 0.01654,0.44648 0.0055,0.18741 0.0055,0.23702 -0.01102,0.16537 -0.09922,0.16537 -0.08268,0 -0.1819,-0.0827 z m 3.345873,-0.0551 q -0.20395,-0.0772 -0.39136,0.0606 -0.18741,0.13781 -0.35829,0.39136 -0.17088,0.24805 -0.32522,0.56776 -0.15434,0.3197 -0.28663,0.60633 -0.13229,0.28663 -0.24253,0.49058 -0.10474,0.20395 -0.19293,0.226 -0.06614,0 -0.104731,-0.0221 -0.03307,-0.0276 -0.03307,-0.12678 v -3.875037 q 0,-0.04961 0.03858,-0.06063 0.0441,-0.01102 0.09371,-0.0055 0.04961,0.0055 0.0937,0.02756 0.0441,0.01654 0.0551,0.03859 l 0.0717,3.103337 q 0.0606,-0.0992 0.11025,-0.27561 0.0551,-0.1819 0.12678,-0.38585 0.0717,-0.20946 0.16536,-0.41341 0.0992,-0.20946 0.24254,-0.37482 0.14331,-0.16537 0.34726,-0.253562 0.20946,-0.09371 0.49058,-0.06615 0.18742,0 0.30317,0.121268 0.11576,0.11575 0.12127,0.30868 l 0.0551,2.19935 q 0,0.0221 -0.011,0.0661 -0.006,0.0386 -0.0441,0.0661 -0.0331,0.0331 -0.0992,0.0386 -0.0606,0.011 -0.15985,-0.0276 z m 0.8158,1.21818 q -0.0276,0.006 -0.0827,0.0165 -0.0551,0.011 -0.11576,0.006 -0.0606,-0.006 -0.10473,-0.0331 -0.0496,-0.0276 -0.0496,-0.0937 0,-0.0386 0.0165,-0.0551 0.0165,-0.0165 0.0551,-0.0496 0.12127,-0.0992 0.20395,-0.25356 0.0882,-0.15985 0.15985,-0.33624 0.0717,-0.1819 0.14883,-0.35829 0.0827,-0.1819 0.18741,-0.325215 0.10473,-0.143316 0.25907,-0.231511 0.15434,-0.08819 0.38034,-0.08268 0.0937,0 0.20946,0.0441 0.11576,0.0441 0.21498,0.121268 0.0992,0.07166 0.16536,0.176393 0.0661,0.10473 0.0661,0.23151 0.0276,0.0441 -0.0551,0.12678 -0.0772,0.0827 -0.21498,0.1819 -0.1378,0.0937 -0.31419,0.19843 -0.17088,0.0992 -0.33073,0.18742 -0.15985,0.0882 -0.28112,0.15434 -0.12127,0.0661 -0.15985,0.0992 -0.0276,0.0551 -0.0441,0.12677 -0.0165,0.0717 -0.0276,0.13781 -0.006,0.0606 -0.011,0.11575 0,0.0496 0,0.0772 0,0.10473 -0.011,0.23151 -0.006,0.12678 0.011,0.24254 0.022,0.11024 0.0937,0.18741 0.0717,0.0717 0.24254,0.0717 0.1819,0 0.34175,-0.0882 0.15985,-0.0937 0.29766,-0.22599 0.1378,-0.13229 0.24804,-0.28663 0.11576,-0.15435 0.20395,-0.28664 0.0937,-0.1378 0.16537,-0.22599 0.0717,-0.0882 0.12126,-0.0882 0.0551,0 0.11576,0.022 0.0661,0.0165 0.0661,0.0882 0,0.0992 -0.0827,0.23703 -0.0772,0.1378 -0.20946,0.29214 -0.12678,0.15434 -0.29765,0.30868 -0.16537,0.14883 -0.33625,0.2701 -0.17087,0.11575 -0.33624,0.19292 -0.16536,0.0717 -0.29214,0.0717 -0.24805,0 -0.37483,-0.12127 -0.12678,-0.12127 -0.1819,-0.30317 -0.0496,-0.1819 -0.0551,-0.38585 0,-0.20946 -0.006,-0.38585 z m 1.01423,-1.488277 q -0.0937,0 -0.19843,0.09371 -0.10473,0.0882 -0.19844,0.22049 -0.0882,0.12677 -0.14883,0.26458 -0.0551,0.13229 -0.0551,0.22048 0.0827,0 0.23702,-0.0606 0.15986,-0.0662 0.3142,-0.15985 0.15434,-0.0937 0.27009,-0.19844 0.11576,-0.10473 0.11576,-0.19844 0,-0.0496 -0.0386,-0.0827 -0.0386,-0.0331 -0.0937,-0.0551 -0.0496,-0.0221 -0.10473,-0.03307 -0.0551,-0.01102 -0.0992,-0.01102 z m 3.97426,1.411107 q 0.0165,-0.19843 0.0331,-0.42994 0.0165,-0.23703 0.0496,-0.46854 0.0386,-0.23151 0.0937,-0.44097 0.0606,-0.209461 0.15434,-0.369313 0.0992,-0.165365 0.24254,-0.259071 0.14331,-0.09922 0.34726,-0.09371 0.13781,0 0.20946,0.115755 0.0772,0.115755 0.10474,0.28112 0.0331,0.165364 0.0331,0.341756 0.006,0.17087 0.006,0.28112 -0.11024,0 -0.1819,-0.0937 -0.0717,-0.0992 -0.11024,-0.226 -0.0386,-0.126778 -0.0551,-0.248045 l -0.0165,-0.159852 q -0.006,0 -0.0221,0 -0.011,-0.0055 -0.0165,-0.0055 -0.0937,0 -0.17639,0.104731 -0.0772,0.10473 -0.14882,0.270095 -0.0662,0.159853 -0.11576,0.363803 -0.0496,0.19844 -0.0827,0.39136 -0.0331,0.19293 -0.0551,0.35829 -0.0165,0.15985 -0.0165,0.24805 -0.011,0.14331 0,0.31419 0.011,0.17088 0.0661,0.3197 0.0551,0.14883 0.15434,0.25908 0.0992,0.10473 0.26458,0.14331 0.20395,0 0.33073,-0.0551 0.12678,-0.0551 0.20395,-0.14883 0.0827,-0.0937 0.12678,-0.20946 0.0441,-0.11575 0.0827,-0.23702 0.0441,-0.12678 0.0882,-0.24805 0.0441,-0.12127 0.12678,-0.226 0.0662,-0.0165 0.0937,0.006 0.0331,0.0165 0.0441,0.0496 0.011,0.0331 0.011,0.0772 v 0.0606 q 0,0.23151 -0.0772,0.44648 -0.0772,0.21498 -0.226,0.38585 -0.14882,0.16537 -0.35829,0.2701 -0.20395,0.0992 -0.46853,0.0992 -0.22048,0 -0.36931,-0.13781 -0.14332,-0.14331 -0.226,-0.34175 -0.0772,-0.19844 -0.11024,-0.41341 -0.0331,-0.22049 -0.0331,-0.37483 z m 2.19935,0.51263 q -0.0386,-0.25356 -0.0386,-0.49058 0,-0.24253 0.0276,-0.49058 0.0331,-0.24805 0.0882,-0.51263 0.0606,-0.2701 0.1378,-0.578775 0,-0.06063 0.0331,-0.110243 0.0331,-0.05512 0.0882,-0.0882 0.0551,-0.03858 0.11576,-0.06063 0.0606,-0.02205 0.11575,-0.02205 0.12127,0 0.22049,0.07717 0.0992,0.07717 0.17639,0.187413 0.0827,0.110243 0.1378,0.237022 0.0606,0.12127 0.0992,0.20946 0.0441,0.19293 0.0606,0.44097 0.022,0.24254 0.006,0.4961 -0.0165,0.25356 -0.0772,0.5016 -0.0606,0.24254 -0.17087,0.44649 -0.11024,0.20395 -0.28663,0.34175 -0.17088,0.1378 -0.4079,0.17088 -0.12678,0 -0.19293,-0.0827 -0.0661,-0.0882 -0.0992,-0.20946 -0.0276,-0.12678 -0.0331,-0.25356 0,-0.12678 0,-0.20946 z m 0.28112,-0.0165 q 0,0.0551 0,0.10473 0.006,0.0496 0.011,0.0992 0.011,0.0441 0.022,0.0992 0.0165,0.0496 0.0386,0.11576 h 0.0331 q 0.13229,0 0.226,-0.0882 0.0937,-0.0882 0.15985,-0.22599 0.0662,-0.14332 0.11024,-0.3142 0.0441,-0.17638 0.0661,-0.34175 0.0276,-0.17088 0.0331,-0.31419 0.011,-0.14883 0.011,-0.23702 v -0.11025 q 0,-0.0717 -0.006,-0.15985 -0.006,-0.0937 -0.022,-0.18741 -0.011,-0.0992 -0.0386,-0.17639 -0.0276,-0.0827 -0.0717,-0.13229 -0.0441,-0.04961 -0.11575,-0.04961 -0.12127,-0.03858 -0.20946,0.01654 -0.0827,0.05513 -0.13781,0.187415 -0.0496,0.12678 -0.0772,0.31419 -0.0276,0.18741 -0.0331,0.41341 -0.006,0.226 -0.006,0.47956 0.006,0.25356 0.006,0.50712 z m 1.2237,0.0165 q -0.0386,-0.25356 -0.0386,-0.49058 0,-0.24253 0.0276,-0.49058 0.0331,-0.24805 0.0882,-0.51263 0.0606,-0.2701 0.1378,-0.578775 0,-0.06063 0.0331,-0.110243 0.0331,-0.05512 0.0882,-0.0882 0.0551,-0.03858 0.11575,-0.06063 0.0606,-0.02205 0.11576,-0.02205 0.12127,0 0.22049,0.07717 0.0992,0.07717 0.17638,0.187413 0.0827,0.110243 0.13781,0.237022 0.0606,0.12127 0.0992,0.20946 0.0441,0.19293 0.0606,0.44097 0.0221,0.24254 0.006,0.4961 -0.0165,0.25356 -0.0772,0.5016 -0.0606,0.24254 -0.17087,0.44649 -0.11025,0.20395 -0.28664,0.34175 -0.17087,0.1378 -0.40789,0.17088 -0.12678,0 -0.19293,-0.0827 -0.0661,-0.0882 -0.0992,-0.20946 -0.0276,-0.12678 -0.0331,-0.25356 0,-0.12678 0,-0.20946 z m 0.28112,-0.0165 q 0,0.0551 0,0.10473 0.006,0.0496 0.011,0.0992 0.011,0.0441 0.0221,0.0992 0.0165,0.0496 0.0386,0.11576 h 0.0331 q 0.13229,0 0.226,-0.0882 0.0937,-0.0882 0.15985,-0.22599 0.0661,-0.14332 0.11024,-0.3142 0.0441,-0.17638 0.0662,-0.34175 0.0276,-0.17088 0.0331,-0.31419 0.011,-0.14883 0.011,-0.23702 v -0.11025 q 0,-0.0717 -0.006,-0.15985 -0.006,-0.0937 -0.022,-0.18741 -0.011,-0.0992 -0.0386,-0.17639 -0.0276,-0.0827 -0.0717,-0.13229 -0.0441,-0.04961 -0.11575,-0.04961 -0.12127,-0.03858 -0.20947,0.01654 -0.0827,0.05513 -0.1378,0.187415 -0.0496,0.12678 -0.0772,0.31419 -0.0276,0.18741 -0.0331,0.41341 -0.006,0.226 -0.006,0.47956 0.006,0.25356 0.006,0.50712 z m 1.34496,0.49058 q 0.0386,-0.25356 0.0496,-0.6339 0.0165,-0.38034 0.011,-0.81029 0,-0.42994 -0.0165,-0.88745 -0.0165,-0.45751 -0.0441,-0.865409 -0.0276,-0.413411 -0.0661,-0.738628 -0.0331,-0.325217 -0.0717,-0.51263 0.0496,-0.03307 0.0827,-0.04961 0.0386,-0.02205 0.0882,-0.02205 0.0386,0 0.0661,0.01654 0.0276,0.01102 0.0441,0.05512 0.11024,1.080381 0.14883,2.177297 0.0441,1.09692 0.0661,2.18281 0,0.0496 0,0.13781 0,0.0827 -0.006,0.0882 -0.0772,0.0386 -0.1378,0.0386 -0.0606,-0.006 -0.11025,-0.0331 -0.0496,-0.0331 -0.0772,-0.0717 -0.0276,-0.0386 -0.0276,-0.0717 z m 3.36241,-3.952213 q 0.11576,-0.110243 0.1819,-0.08819 0.0717,0.02205 0.10473,0.148828 0.0331,0.12678 0.0386,0.330729 0.006,0.20395 -0.006,0.463021 -0.006,0.253559 -0.0276,0.54019 -0.0221,0.28112 -0.0386,0.55673 -0.0165,0.27009 -0.0221,0.51814 -0.006,0.24805 0.0165,0.42995 h 0.0165 q 0.011,0 0.0165,-0.006 0.28663,-0.28663 0.51263,-0.60633 0.226,-0.31971 0.4079,-0.60083 0.1819,-0.286628 0.31971,-0.496089 0.14331,-0.209462 0.26458,-0.286632 0.0827,0 0.1378,0.02756 0.0606,0.02756 0.0606,0.126779 0,0.01102 -0.006,0.03858 0,0.02205 0,0.03307 -0.1378,0.28112 -0.30316,0.567753 -0.16537,0.28112 -0.35829,0.5457 -0.19293,0.26458 -0.41893,0.50161 -0.22048,0.23702 -0.47955,0.42994 0,0.006 -0.006,0.022 0,0.011 0,0.0165 0,0.0551 0.0882,0.12127 0.0937,0.0661 0.23151,0.12678 0.14331,0.0606 0.31419,0.12126 0.17639,0.0606 0.34175,0.10473 0.17088,0.0441 0.3142,0.0717 0.14882,0.0276 0.23151,0.0276 0,0.0221 0,0.0827 0.006,0.0606 -0.006,0.12678 -0.011,0.0661 -0.0386,0.12127 -0.0276,0.0496 -0.0882,0.0496 h -0.022 q -0.011,0 -0.0165,-0.006 l -1.57647,-0.6339 q -0.006,0.32522 -0.0441,0.52917 -0.0386,0.19844 -0.0937,0.29214 -0.0496,0.0992 -0.11024,0.0937 -0.0551,-0.006 -0.0992,-0.0882 z m 2.34818,4.123083 q 0,-0.35829 -0.0165,-0.75516 -0.011,-0.39688 -0.0276,-0.79926 -0.011,-0.4079 -0.006,-0.79926 0.006,-0.391366 0.0496,-0.733119 0.011,-0.0055 0.0496,-0.0055 0.0441,-0.0055 0.0606,-0.0055 0.0772,0 0.12127,0.02756 0.0496,0.02205 0.0496,0.104731 0,0.325217 -0.006,0.711072 0,0.38033 -0.006,0.77721 0,0.39136 0,0.77721 0,0.38585 0.011,0.70004 0.006,0.0937 -0.0386,0.12127 -0.0386,0.0331 -0.0992,0.0331 -0.0661,0 -0.11024,-0.0331 -0.0441,-0.0276 -0.0331,-0.12127 z m -0.12127,-3.946695 q 0,-0.06614 0.0441,-0.08819 0.0441,-0.02205 0.0992,-0.02205 0.11024,0 0.1378,0.07166 0.0276,0.07166 0.0276,0.165365 -0.0331,0.06063 -0.0827,0.08819 -0.0496,0.02205 -0.10473,0.01102 -0.0496,-0.01654 -0.0882,-0.07166 -0.0331,-0.05512 -0.0331,-0.154341 z m 1.98989,3.048215 q -0.0551,0.12678 -0.14332,0.29215 -0.0827,0.16536 -0.19844,0.31419 -0.11024,0.14883 -0.25907,0.25356 -0.14883,0.10473 -0.33073,0.10473 -0.0827,0 -0.13229,-0.0165 -0.0441,-0.0221 -0.0827,-0.0606 -0.0331,-0.0386 -0.0662,-0.0937 -0.0276,-0.0551 -0.0716,-0.12126 -0.0165,-0.2701 -0.0221,-0.57878 0,-0.31419 0.0331,-0.62287 0.0331,-0.3142 0.11024,-0.5898 0.0827,-0.27561 0.226,-0.46854 0.14883,-0.19292 0.36931,-0.275603 0.22049,-0.08268 0.53468,-0.01102 0.0165,-0.15434 0.006,-0.413411 -0.011,-0.259071 -0.0331,-0.545703 -0.022,-0.286632 -0.0441,-0.551215 -0.022,-0.270095 -0.0276,-0.440972 0,-0.04961 0.0441,-0.07166 0.0496,-0.02756 0.10473,-0.03307 0.0551,-0.0055 0.10473,0 0.0551,0.0055 0.0717,0.01654 -0.011,0.677994 -0.006,1.33394 0.006,0.650434 0.011,1.300872 0.011,0.64492 0.022,1.28433 0.011,0.6394 0.011,1.27881 0,0.0606 -0.011,0.12678 -0.006,0.0717 -0.0937,0.0717 -0.0331,0 -0.0661,-0.022 -0.0331,-0.0165 -0.0441,-0.0551 z m -0.23703,-1.59852 q -0.17087,-0.011 -0.3197,0.1378 -0.14332,0.14332 -0.25356,0.37483 -0.10473,0.23151 -0.17088,0.51263 -0.0661,0.27561 -0.0827,0.53468 -0.011,0.25356 0.0331,0.45199 0.0496,0.19844 0.17088,0.2701 0.12127,0 0.226,-0.0937 0.10473,-0.0992 0.19292,-0.24804 0.0882,-0.14883 0.15434,-0.33073 0.0662,-0.18742 0.11025,-0.35829 0.0496,-0.17088 0.0717,-0.30868 0.0276,-0.14332 0.0276,-0.21498 0,-0.0551 0.006,-0.17638 0.006,-0.12127 -0.006,-0.24254 -0.011,-0.12127 -0.0496,-0.21497 -0.0331,-0.0937 -0.11025,-0.0937 z m 1.25126,2.52456 q 0,0.006 0.11576,-0.0661 0.12126,-0.0717 0.28112,-0.18741 0.16536,-0.12127 0.33624,-0.25908 0.17087,-0.14331 0.28112,-0.27009 0.11024,-0.12678 0.11575,-0.21497 0.011,-0.0937 -0.14883,-0.12127 -0.19843,-0.0276 -0.33624,0.006 -0.13229,0.0331 -0.24253,0.0772 -0.11024,0.0441 -0.20946,0.0827 -0.0937,0.0386 -0.20946,0.0276 -0.24254,0 -0.33625,-0.14882 -0.0882,-0.15434 -0.0882,-0.41342 0,-0.25907 0.11575,-0.49058 0.11576,-0.23702 0.29766,-0.4079 0.1819,-0.17087 0.41892,-0.270091 0.23703,-0.104731 0.48507,-0.104731 0.0992,0 0.17088,0.01654 0.0717,0.01654 0.0717,0.126779 0,0.07717 -0.0662,0.148826 -0.0661,0.0661 -0.14883,0.0661 -0.006,0 -0.0276,-0.006 -0.022,-0.011 -0.0441,-0.0276 -0.0221,-0.0165 -0.0441,-0.022 -0.0221,-0.011 -0.0276,-0.011 -0.17639,-0.0496 -0.34176,0.0496 -0.16536,0.0992 -0.29765,0.2701 -0.12678,0.16536 -0.20395,0.3638 -0.0772,0.19292 -0.0772,0.34726 0,0.0606 0.022,0.0992 0.0276,0.0331 0.0661,0.0496 0.0441,0.0165 0.0937,0.0221 0.0551,0 0.11024,0 0.11025,0 0.22049,-0.0331 0.11575,-0.0331 0.22048,-0.0772 0.11025,-0.0441 0.22049,-0.0772 0.11576,-0.0331 0.23702,-0.0331 0.0551,0 0.12127,0.0331 0.0662,0.0276 0.12127,0.0882 0.0551,0.0551 0.0937,0.13229 0.0386,0.0717 0.0441,0.15986 0.0331,0.0772 -0.0221,0.20395 -0.0496,0.12677 -0.15434,0.27009 -0.10473,0.14332 -0.25356,0.29214 -0.14882,0.14332 -0.29765,0.26459 -0.14883,0.11575 -0.29215,0.18741 -0.14331,0.0772 -0.24253,0.0717 -0.11024,0 -0.13229,-0.0662 -0.0165,-0.0661 -0.0165,-0.14883 z"
         id="text2"
         style="-inkscape-font-specification:'Shadows Into Light, @wght=700';fill:#ffffff;stroke-width:0.4"
         aria-label="Join the cool kids" />
      <path
         style="font-variation-settings:'wght' 700;fill:none;fill-opacity:1;stroke:#ffffff;stroke-width:0.253;stroke-dasharray:none;marker-end:url(#Sketch)"
         d="m 125.73955,100.30168 c 6.87794,-0.0944 5.11389,-3.995809 0,-9.624892"
         id="path3" />
    </g>
  </g>
</svg>
